<?xml version="1.0" encoding="utf-8"?>
<!-- Generator: Adobe Illustrator 23.0.1, SVG Export Plug-In . SVG Version: 6.00 Build 0)  -->
<svg version="1.1" id="Layer_1" xmlns="http://www.w3.org/2000/svg" xmlns:xlink="http://www.w3.org/1999/xlink" x="0px" y="0px"
	 viewBox="0 0 50 50" style="enable-background:new 0 0 50 50;" xml:space="preserve">
<style type="text/css">
	.st0{fill:#53BDCA;}
	.st1{fill:none;stroke:#F5F5F5;stroke-width:2;stroke-linecap:round;stroke-miterlimit:10;}
</style>
<circle class="st0" cx="25" cy="25" r="25"/>
<g>
	<line class="st1" x1="28.3" y1="9.7" x2="25" y2="13.7"/>
	<line class="st1" x1="21.7" y1="9.7" x2="25" y2="13.7"/>
	<polyline class="st1" points="25,42.8 25,25 25,7.2 	"/>
	<line class="st1" x1="21.7" y1="40.3" x2="25" y2="36.3"/>
	<line class="st1" x1="28.3" y1="40.3" x2="25" y2="36.3"/>
	<line class="st1" x1="38.1" y1="16.5" x2="33" y2="17"/>
	<line class="st1" x1="33.5" y1="11.9" x2="33" y2="17"/>
	<polyline class="st1" points="12.4,37.6 25,25 37.6,12.4 	"/>
	<line class="st1" x1="11.9" y1="33.5" x2="17" y2="33"/>
	<line class="st1" x1="16.5" y1="38.1" x2="17" y2="33"/>
	<line class="st1" x1="40.3" y1="28.3" x2="36.3" y2="25"/>
	<line class="st1" x1="40.3" y1="21.7" x2="36.3" y2="25"/>
	<polyline class="st1" points="7.2,25 25,25 42.8,25 	"/>
	<line class="st1" x1="9.7" y1="21.7" x2="13.7" y2="25"/>
	<line class="st1" x1="9.7" y1="28.3" x2="13.7" y2="25"/>
	<line class="st1" x1="33.5" y1="38.1" x2="33" y2="33"/>
	<line class="st1" x1="38.1" y1="33.5" x2="33" y2="33"/>
	<polyline class="st1" points="12.4,12.4 25,25 37.6,37.6 	"/>
	<line class="st1" x1="16.5" y1="11.9" x2="17" y2="17"/>
	<line class="st1" x1="11.9" y1="16.5" x2="17" y2="17"/>
</g>
</svg>
