<?xml version="1.0" encoding="utf-8"?>
<!-- Generator: Adobe Illustrator 23.0.1, SVG Export Plug-In . SVG Version: 6.00 Build 0)  -->
<svg version="1.1" id="Layer_1" xmlns="http://www.w3.org/2000/svg" xmlns:xlink="http://www.w3.org/1999/xlink" x="0px" y="0px"
	 viewBox="0 0 50 50" style="enable-background:new 0 0 50 50;" xml:space="preserve">
<style type="text/css">
	.st0{fill:#E20613;}
</style>
<path class="st0" d="M15.5,35c-2.6-2.5-4.3-6-4.3-10c0-7.6,6.2-13.7,13.7-13.7c1.3,0,2.6,0.2,3.8,0.5c0.6,0.2,1.5,0,2-0.8
	s3.2-5.6,3.6-6.4c0.6-1.1,0-2.3-1.4-2.3h-9.2C11.3,2.3,1.1,12.5,1.1,25c0,5.1,1.7,9.8,4.6,13.6c-0.9,1.6-3.5,6.2-4.3,7.7
	c-0.4,0.8-0.2,1.4,0.7,1.4H9c0.8,0,1.2-0.4,1.6-1c0.4-0.8,4.1-7.3,5.3-9.3C16.2,36.8,16.6,35.9,15.5,35"/>
<path class="st0" d="M34.5,15c2.6,2.5,4.3,6,4.3,10c0,7.6-6.2,13.7-13.7,13.7c-1.3,0-2.6-0.2-3.8-0.5c-0.6-0.2-1.5,0-2,0.8
	s-3.2,5.6-3.6,6.4c-0.6,1.1,0,2.3,1.4,2.3h9.2c12.5,0,22.7-10.2,22.7-22.7c0-5.1-1.7-9.8-4.6-13.6c0.9-1.6,3.5-6.2,4.3-7.7
	c0.4-0.8,0.2-1.4-0.7-1.4H41c-0.8,0-1.2,0.4-1.6,1c-0.4,0.8-4.1,7.3-5.3,9.3C33.8,13.2,33.4,14.1,34.5,15"/>
<path class="st0" d="M26.3,17.2c0,0.7-0.6,1.3-1.3,1.3c-0.7,0-1.3-0.6-1.3-1.3c0-0.7,0.6-1.3,1.3-1.3C25.7,15.9,26.3,16.5,26.3,17.2
	"/>
<rect x="17.3" y="30.3" class="st0" width="15.4" height="1.9"/>
<path class="st0" d="M15,26.7c0.5,0.8,1,1.2,1.5,1.8l0.9,1h15.4l0.9-1c0.5-0.5,1-1.1,1.5-1.8c2.1-3.1-0.4-6.4-3.3-6.2
	c-0.1,0-0.1,0-0.2,0c-0.1-0.1-0.2-0.3-0.3-0.4c-0.9-1.2-2.5-1.8-4-1.4c-0.9,0.2-1.7,0.7-2.3,1.4c-0.6-0.7-1.4-1.2-2.3-1.4
	c-1.6-0.3-3.1,0.2-4,1.4c-0.1,0.2-0.2,0.3-0.3,0.4c-0.1,0-0.2,0-0.2,0C15.6,20.2,12.7,23.4,15,26.7 M24,22.2
	c-1.8-0.1-2.9-0.7-3.8-1.1c0,0,0,0,0,0c0.5-0.6,1.3-0.8,2.1-0.7C23,20.6,23.8,21.1,24,22.2C24,22.1,24,22.1,24,22.2 M29.8,21.1
	C29.8,21.1,29.8,21.1,29.8,21.1c-0.9,0.4-2.1,0.9-3.8,1.1c0,0,0,0,0-0.1c0.2-1,1-1.5,1.7-1.7C28.5,20.2,29.3,20.5,29.8,21.1
	 M29.1,27.6c0.8-0.8,1.7-2,1.9-2.2c0.2-0.3,1.3-1.4,1.2-3c1.3,0.2,1.7,1.3,1.7,1.8c0,0.4-0.1,1-0.5,1.5c-0.4,0.5-0.8,1-1.3,1.5
	c0,0-0.2,0.2-0.4,0.4H29.1z M25.9,24c2.1-0.1,3.4-0.7,4.4-1.2c-0.1,0.4-0.5,1-0.7,1.2c-0.6,0.8-2.4,2.7-3.1,3.5h-0.6
	C25.9,27.6,25.9,24.8,25.9,24 M23.5,27.6c-0.8-0.8-2.7-2.9-3-3.4c-0.3-0.4-0.7-0.9-0.8-1.4c1,0.4,2.4,1,4.4,1.2c0,0.8,0,3.6,0,3.6
	H23.5z M16,24.2c0-0.8,0.7-1.7,1.7-1.8c-0.1,1.3,0.6,2.2,1.2,2.9c0.5,0.6,1.2,1.5,2,2.4h-2.8c-0.2-0.2-0.4-0.4-0.4-0.4
	c-0.5-0.5-0.9-1-1.3-1.5C16.2,25.2,16,24.6,16,24.2"/>
</svg>
