<svg id="Lag_1" data-name="Lag 1" xmlns="http://www.w3.org/2000/svg" viewBox="0 0 70.87 70.87"><defs><style>.cls-1,.cls-3,.cls-4{fill:none;stroke:#16639f;stroke-linejoin:round;}.cls-1,.cls-3{stroke-width:1.7px;}.cls-2{fill:#16639f;}.cls-3,.cls-4{stroke-linecap:round;}.cls-4{stroke-width:1.7px;}</style></defs><g id="editProductBlack_aoq8kk" data-name="editProductBlack aoq8kk"><path id="Path_432" data-name="Path 432" class="cls-1" d="M26.91,30.39,14.91,11c-.14-.24-.08-.54.14-.59l8.3-5.14c.24-.15.53-.08.58.14l12,19.35a.8.8,0,0,1,.1.43l.1,10.09-9-4.57Z"/></g><path class="cls-2" d="M19.52,18.5a1.16,1.16,0,0,1-.5.13.63.63,0,0,1-.46-.77l1-3.3a.82.82,0,0,1,.85-.51.63.63,0,0,1,.46.77l-1,3.3A.89.89,0,0,1,19.52,18.5Z"/><path class="cls-2" d="M24,15.83a1.32,1.32,0,0,1-.51.12l-3.39-.66a.63.63,0,0,1-.45-.77.82.82,0,0,1,.85-.51l3.39.67a.62.62,0,0,1,.46.76A1.32,1.32,0,0,1,24,15.83Z"/><path class="cls-2" d="M24,15.83a1.32,1.32,0,0,1-.51.12.62.62,0,0,1-.45-.76l1-3.3a.82.82,0,0,1,.86-.51.63.63,0,0,1,.46.77l-1,3.29A1.32,1.32,0,0,1,24,15.83Z"/><path class="cls-2" d="M28.38,13.22a1.16,1.16,0,0,1-.5.13l-3.4-.67a.62.62,0,0,1-.45-.76.81.81,0,0,1,.85-.51l3.39.66a.63.63,0,0,1,.46.77A1.17,1.17,0,0,1,28.38,13.22Z"/><path class="cls-2" d="M51.13,46.53a171,171,0,0,1-16,13.29,2.79,2.79,0,0,1-3.42-.26,2.86,2.86,0,0,1-.7-3.31A178.69,178.69,0,0,1,47.12,31.87a6.44,6.44,0,0,1,4.61-2.31,6.86,6.86,0,0,1,4.8,1.61,6.61,6.61,0,0,1,2.31,4.6,6.78,6.78,0,0,1-1.61,4.81C57.16,40.65,54.89,43,51.13,46.53ZM48.75,32.47l-.36.33A181.17,181.17,0,0,0,32.54,56.85a1.11,1.11,0,0,0,.37,1.38h0a1.35,1.35,0,0,0,1.43.12,177,177,0,0,0,21.77-19,4.78,4.78,0,0,0,1.22-3.66A4.61,4.61,0,0,0,55.6,32.3,5.28,5.28,0,0,0,48.75,32.47Z"/><path class="cls-2" d="M61.22,32.36a5.91,5.91,0,0,1-2.3,1.22s-.76.18-1.45.29a.83.83,0,1,1-.22-1.65A6.24,6.24,0,0,0,58.49,32c.42-.12.7-.25.9-.31a5.56,5.56,0,0,0-1-.24.71.71,0,0,1-.6-.5,1,1,0,0,1-.05-.76,9.7,9.7,0,0,0,.45-.94c-.28.13-.49.33-.91.58a.67.67,0,0,1-.69.12,1.1,1.1,0,0,1-.53-.57,6.34,6.34,0,0,0-.38-1,7.88,7.88,0,0,0-.24,1h0a6.2,6.2,0,0,0,0,1.23.88.88,0,0,1-.79.86.87.87,0,0,1-.86-.78c0-.76.12-1.44,0-1.51.35-2.18,1-2.91,1.2-3a.61.61,0,0,1,.76,0,3.05,3.05,0,0,1,1.38,1.62c1.19-.71,1.87-.55,2.07-.47a.71.71,0,0,1,.6.5A3,3,0,0,1,59.52,30c1.29.39,1.75.89,1.82,1.09A1.11,1.11,0,0,1,61.22,32.36Z"/><path class="cls-2" d="M48.57,39.52a.84.84,0,0,1-1.1,0,16.4,16.4,0,0,1-2.88-3.67A.78.78,0,0,1,45,34.74a.79.79,0,0,1,1.08.45h0a11,11,0,0,0,2.56,3.17.86.86,0,0,1-.11,1.16Z"/><path class="cls-2" d="M51.2,46.47a.65.65,0,0,1-.76.18,14.74,14.74,0,0,1-4-2.27.84.84,0,1,1,1-1.33,10.9,10.9,0,0,0,3.42,2,.77.77,0,0,1,.51,1C51.34,46.34,51.27,46.4,51.2,46.47Z"/><path class="cls-2" d="M43.11,46.6a.76.76,0,0,1-1.09,0,13.11,13.11,0,0,1-2.56-3.31A.83.83,0,0,1,41,42.62a13.68,13.68,0,0,0,2.16,2.88.71.71,0,0,1,0,1.1Z"/><path class="cls-3" d="M55.49,35.45A4,4,0,0,1,54.41,39"/><path class="cls-4" d="M37.64,36.69a9,9,0,0,1,1.5,3.15"/><path class="cls-4" d="M30.32,54a2.22,2.22,0,0,1-1.63.19s-6.1-1.09-8.73-5.44a12.57,12.57,0,0,1-2.05-7.88,5.17,5.17,0,0,1,2.24-3.65c2.06-1.32,6-.89,6-.89a8.94,8.94,0,0,1,2.62-2.22"/><path class="cls-4" d="M24.86,31.49s-.3.66,1.27,4.88"/><path class="cls-4" d="M23.14,33.71c-3,2.86-7.69-2.73-7.69-2.73C15.13,31.1,21.69,30,23.14,33.71Z"/><path class="cls-4" d="M22.88,47.46S20,43.54,22,40.41"/><path class="cls-4" d="M18.34,50.35v12a1.41,1.41,0,0,0,1.4,1.41H59a1.42,1.42,0,0,0,1.41-1.41V34.15"/><path class="cls-4" d="M29.64,9.57H58.9a1.48,1.48,0,0,1,1.48,1.48V26.1"/><path class="cls-4" d="M18.34,21v7.54"/><path class="cls-4" d="M18.34,36.08v-.39"/></svg>