<svg id="Lag_1" data-name="Lag 1" xmlns="http://www.w3.org/2000/svg" viewBox="0 0 70.87 70.87"><defs><style>.cls-1{fill:none;stroke:#16639f;stroke-linecap:round;stroke-linejoin:round;stroke-width:1.7px;}</style></defs><line class="cls-1" x1="17.7" y1="58.5" x2="17.7" y2="31.5"/><line class="cls-1" x1="53.7" y1="31.5" x2="53.7" y2="58.5"/><line class="cls-1" x1="17.7" y1="58.5" x2="53.7" y2="58.5"/><line class="cls-1" x1="8.7" y1="40.5" x2="35.7" y2="13.5"/><line class="cls-1" x1="62.7" y1="40.5" x2="44.7" y2="22.5"/><line class="cls-1" x1="35.7" y1="13.5" x2="39.19" y2="16.99"/><line class="cls-1" x1="41.04" y1="19.12" x2="42.23" y2="20.31"/><line class="cls-1" x1="17.7" y1="27.91" x2="17.7" y2="19.71"/><line class="cls-1" x1="23.15" y1="19.71" x2="23.15" y2="22.72"/><line class="cls-1" x1="17.7" y1="19.71" x2="23.15" y2="19.71"/><line class="cls-1" x1="31.56" y1="55.28" x2="31.56" y2="40.91"/><line class="cls-1" x1="40.73" y1="55.28" x2="40.73" y2="40.91"/><line class="cls-1" x1="31.56" y1="40.91" x2="40.73" y2="40.91"/><line class="cls-1" x1="31.56" y1="27" x2="40.73" y2="27"/><line class="cls-1" x1="31.56" y1="35.57" x2="31.56" y2="27"/><line class="cls-1" x1="40.73" y1="27" x2="40.73" y2="35.57"/><line class="cls-1" x1="31.56" y1="35.57" x2="40.73" y2="35.57"/></svg>