<svg id="Lag_1" data-name="Lag 1" xmlns="http://www.w3.org/2000/svg" viewBox="0 0 70.87 70.87"><defs><style>.cls-1{fill:none;stroke:#16639f;stroke-linecap:round;stroke-linejoin:round;stroke-width:1.7px;}</style></defs><path class="cls-1" d="M28.41,26.6s-2.63-.66-2.63,1.32,2.14,3,2.72,2.72"/><path class="cls-1" d="M32.62,37.07v1.81L24.46,41s-2.8,1-2.8,3.46v6.92"/><line class="cls-1" x1="27.1" y1="46.8" x2="27.1" y2="54.67"/><path class="cls-1" d="M39.79,37.07v1.81L48,41s2.8,1,2.8,3.46v6.92"/><line class="cls-1" x1="45.31" y1="46.8" x2="45.31" y2="54.67"/><path class="cls-1" d="M31.64,39.14s1.88,3.37,4.52,3.37"/><path class="cls-1" d="M40.9,39.18s-2,3.33-4.66,3.33"/><path class="cls-1" d="M44,26.6s2.64-.66,2.64,1.32-2.14,3-2.72,2.72"/><path class="cls-1" d="M36.24,37.89h-.16a7.88,7.88,0,0,1-7.25-5.35,6.14,6.14,0,0,1-.42-2.15c0-1.07,0-3,.17-5.11,0,0-.08-7,7.5-7"/><path class="cls-1" d="M36,37.89h.16a7.89,7.89,0,0,0,7.26-5.35,6.37,6.37,0,0,0,.41-2.15c0-1.07,0-3-.17-5.11,0,0,.08-7-7.5-7"/><circle class="cls-1" cx="36.24" cy="36.11" r="23.6"/></svg>