<?xml version="1.0" encoding="utf-8"?>
<!-- Generator: Adobe Illustrator 25.2.1, SVG Export Plug-In . SVG Version: 6.00 Build 0)  -->
<svg version="1.1" id="Layer_1" xmlns="http://www.w3.org/2000/svg" xmlns:xlink="http://www.w3.org/1999/xlink" x="0px" y="0px"
	 viewBox="0 0 400 400" style="enable-background:new 0 0 400 400;" xml:space="preserve">
<style type="text/css">
	.st0{opacity:6.000000e-02;}
	.st1{fill:none;stroke:#2A2A2A;stroke-width:1.7;stroke-linecap:round;stroke-miterlimit:10;}
	.st2{fill:none;stroke:#2A2A2A;stroke-width:1.7;stroke-miterlimit:10;}
	.st3{fill:none;stroke:#2A2A2A;stroke-width:1.7;stroke-linejoin:round;stroke-miterlimit:10;}
	.st4{fill:none;stroke:#2A2A2A;stroke-width:1.7;stroke-linecap:round;stroke-linejoin:round;stroke-miterlimit:10;}
	.st5{fill:#2A2A2A;}
	.st6{fill:none;}
	.st7{fill:none;stroke:#2A2A2A;stroke-miterlimit:10;}
</style>
<g class="st0">
	<g>
		<polyline class="st1" points="92.4,69.4 85,67.6 77.8,65.8 		"/>
		<polyline class="st1" points="87.3,90.4 80,88.6 72.7,86.9 		"/>
		<line class="st1" x1="80.1" y1="69.4" x2="79.7" y2="70.7"/>
		<line class="st1" x1="79" y1="73.7" x2="78.3" y2="76.8"/>
		<line class="st1" x1="79.1" y1="63" x2="92.4" y2="66.2"/>
		<path class="st1" d="M80.4,63.3l-1.8,1.1c-0.5,0.3-0.9,0.9-1,1.4l-2.5,10.5l-2.5,10.4c-0.1,0.6-0.1,1.2,0.2,1.7l0.6,1
			c0.2,0.5,0.8,0.8,1.3,1l4.5,1.1l4.5,1.1c0.5,0.1,1.2,0.1,1.6-0.3l1-0.6c0.5-0.3,0.8-0.8,1-1.4l2.5-10.4l2.5-10.5
			c0.1-0.5,0.1-1.2-0.2-1.7L91,65.9"/>
	</g>
	<g>
		<path class="st2" d="M108.7,370.2l7.4,2.3c0.5,0.2,1-0.1,1.2-0.6l6.7-21.7c0,0,0.8-2.9,0.2-5.4c-0.6-2.5-1.1-3.5-0.3-6
			s0.2-5.6,0.4-6.4c0,0,0.2-1.5,1-2.6c0.7-0.9,0.2-1.5,0.2-1.5l-3.4-1l-3.4-1c0,0-0.7,0.2-0.6,1.3c0.1,1.4-0.6,2.7-0.6,2.7
			c-0.2,0.8-2.5,3-3.2,5.5c-0.8,2.5-1.8,3.1-3.7,4.8c-2,1.7-2.8,4.6-2.8,4.6l-6.7,21.8c-0.2,0.5,0.1,1,0.6,1.2l7,2.2L108.7,370.2z"
			/>
		<path class="st2" d="M118.2,350.9l-6.6-2c-0.6-0.2-1.1,0.1-1.3,0.7l-4,13.1c-0.2,0.5,0.1,1.1,0.7,1.3l6.6,2
			c0.5,0.2,1.2-0.2,1.3-0.7l4-13.1C119,351.7,118.8,351.1,118.2,350.9z"/>
		<path class="st1" d="M116.6,337.4c-0.8,2.5-1.8,3.1-3.7,4.8"/>
		<path class="st1" d="M118.4,333.7c-0.2,0.4-0.5,0.7-0.7,1.2"/>
	</g>
	<g>
		<path class="st2" d="M297.7,307.9l7.8,0.9c0.4,0,0.9-0.3,0.9-0.7l3-25.9c0,0,0.3-3.5-1.5-7.5s-1.3-5.9-1.3-5.9l0.4-3.2l-4.4-0.5
			l-4.4-0.5l-0.4,3.2c0,0,0.1,1.8-2.6,5.4s-3.1,6.9-3.1,6.9l-3,25.9c0,0.4,0.3,0.9,0.7,0.9C289.9,306.9,297.7,307.9,297.7,307.9z"/>
		<path class="st3" d="M307.1,265.6l1,0.1l0.2-1.6c0,0,0-1-0.8-1c-0.8-0.1-4.4-0.5-4.4-0.5s-3.6-0.4-4.4-0.5s-1,0.8-1,0.8l-0.2,1.6
			l1,0.1"/>
		<line class="st2" x1="292" y1="281.4" x2="309.4" y2="283.4"/>
		<line class="st2" x1="290.7" y1="292.4" x2="308.1" y2="294.5"/>
		<path class="st4" d="M300.7,270.4c0.2-0.4,0.3-1,0.4-1.8"/>
		<path class="st4" d="M295.9,278.4c0.2-0.5,0.5-1.2,0.8-2c0.6-1.2,1.5-2.4,2.4-3.4"/>
	</g>
	<g>
		<path class="st2" d="M296.3,92.7l4.6-0.8c0.6-0.1,1.1-0.7,1-1.3l-3.4-20.7l-1.1-6.6c-0.4-2.7-3-3.7-3.8-4.2s-0.9-1.3-0.9-1.3
			l-1.9-11.4c-0.1-0.5-0.6-1-1.2-0.9l-1.1,0.2l-1.1,0.2c-0.5,0.1-1,0.6-0.9,1.2l1.9,11.4c0,0,0.3,0.9-0.4,1.6
			c-0.6,0.6-2.7,2.4-2.2,5.2l1.2,7.2l3.4,20.2c0.1,0.6,0.7,1.1,1.3,1C291.7,93.4,296.3,92.7,296.3,92.7z"/>
		<line class="st2" x1="298.4" y1="70.5" x2="287" y2="72.4"/>
		<line class="st2" x1="300.4" y1="82.3" x2="289" y2="84.2"/>
		<line class="st2" x1="291.9" y1="53.8" x2="287.8" y2="54.5"/>
		<line class="st2" x1="291.4" y1="50.5" x2="287.2" y2="51.2"/>
		<line class="st4" x1="289.4" y1="69.4" x2="289" y2="66.8"/>
		<path class="st4" d="M288.7,64.2c0.1-0.3,0.2-0.9,0.4-1.2"/>
	</g>
	<g>
		<path class="st4" d="M326.7,154.4c0,0,2.8-5.9,12.1-6h0.3c7.9,0.2,15,3.4,19.4,8.7c1.4,1.7,2.4,3.5,3.2,5.4c1.6,3.3,2.9,10,2,15.1
			c-1,5.6-6.8,9.9-7.7,10.5c-0.6,0.6-7.3,5.4-14,5.4c-5.7,0-8.7-2.6-8.7-7.6v-0.3c0-1.1,0.1-2.3,0.3-3.9c0.1-1,0.3-2.4,0.5-4.1
			c0-0.2,0.5-4.4-1.3-7.8c-1.9-3.6-3.6-3.1-6.1-6.6C324.1,158.5,326.7,154.4,326.7,154.4z"/>
		<circle class="st4" cx="339.4" cy="159.9" r="3.1"/>
		<line class="st4" x1="341.3" y1="171.4" x2="351.3" y2="162.2"/>
		<line class="st4" x1="343.2" y1="177" x2="355.3" y2="165.7"/>
		<line class="st4" x1="343.5" y1="183.7" x2="355.7" y2="172.3"/>
		<path class="st4" d="M329.2,156c0,0,2.4-5.1,10.1-5.2h0.3c6.6,0.2,12.6,2.6,16.3,7.2c1.1,1.4,2.5,3.6,3.2,5.2
			c1.3,2.9,2.8,8.8,2,13.2c-0.9,4.9-5.8,9.4-6.6,9.9c-0.5,0.5-6.7,5-12.3,5c-4.8,0-6.4-2.3-6.4-6.6v-0.3c0-1,0.1-2,0.3-3.3
			c0.1-0.9,0.3-2.1,0.4-3.5c0-0.1,0-5.6-1.5-8.5c-1.6-3.1-3.7-3.4-5.8-6.4C327.1,158.4,329.2,156,329.2,156z"/>
	</g>
	<g>
		<path class="st4" d="M49.3,273c1.5,7.9,0.2,12-0.5,14.4c-0.6,2.5-2.9,7.9-8.1,8.9c-4.5,0.8-8.5-1.3-8.5-1.3l0,0c0,0-3.7-2-4.5-6.7
			s2.5-9.6,4.4-11.2s4.9-4.6,12.6-6.7v1.5l2.4-0.8l0.4,2.1L49.3,273z"/>
		<circle class="st1" cx="44.4" cy="277.1" r="0.1"/>
		<circle class="st1" cx="46.1" cy="279.9" r="0.2"/>
		<path class="st4" d="M45.1,270.4l5.6-9c0,0-2.2-3.3-0.6-5.1s4.4-2.3,5.7,1c3.6-0.2,4.4,2.7,3.6,4.7c-0.9,2-4.8,1.6-4.8,1.6l-5.6,9
			"/>
		<circle class="st1" cx="47.5" cy="277" r="0.1"/>
		<path class="st1" d="M31.7,283.5c0,0-2.2,4.5,1.1,7.8"/>
	</g>
	<g>
		<path class="st3" d="M237.1,333.8c0-0.7-0.2-1.4-0.2-1.4c-0.4-1.9-1-2.2-1-2.2l0,0c0,0-0.6,0.3-1.1,2.3c-1.6-1.1-2.4-0.8-2.4-0.8
			s-0.3,0.7,0.8,2.4c-1.9,0.4-2.2,1-2.2,1l0,0c0,0,0.3,0.6,2.3,1.1c0,0,0.7,0.1,1.3,0.1"/>
		<path class="st2" d="M253.9,351.4c16.9,3.1,21.7-2.9,21.7-2.9s2.5-2.9,0.6-6.6s-6-2.2-6-2.2c-6.3,2.4-14.4,1.1-14.4,1.1
			s-7.9-1.7-13-6.3c0,0-3.3-3-6.4-0.2s-1.9,6.4-1.9,6.4S237.1,348.1,253.9,351.4z"/>
		<path class="st3" d="M276,341.2c0.2-0.6,0.7-1.2,0.7-1.2c1.1-1.6,1.8-1.7,1.8-1.7l0,0c0,0,0.5,0.5,0.2,2.5
			c1.9-0.4,2.6,0.1,2.6,0.1s0,0.8-1.6,1.9c1.6,1.1,1.7,1.8,1.7,1.8l0,0c0,0-0.5,0.5-2.5,0.2c0,0-1.3-0.3-1.9-0.5"/>
		<path class="st1" d="M245.1,344.6c2.3,1.1,5.3,2.3,9.1,3.1"/>
		<path class="st1" d="M238.7,340c0.5,0.7,1.3,1.4,2.3,2.1"/>
	</g>
	<g>
		<path class="st2" d="M147.3,191.6l9.1-1c2.3-0.2,3.9-2.2,3.6-4.5l-1.6-15.1c-0.2-2.3-2.2-3.9-4.5-3.6l-9.1,1"/>
		<path class="st4" d="M149.4,173.4l-0.1-1.4c-0.2-2.3-2.2-3.9-4.5-3.6l-21.9,2.3c-0.3,2.3-2,4.3-4.5,4.6c-2.4,0.3-4.6-1.3-5.4-3.5
			l-6.2,0.7l2,19.2c2.3-0.2,4.4,1.5,4.6,3.7l33.7-3.6c2.3-0.2,3.9-2.2,3.6-4.5l-0.9-8.5 M115.1,186.8c-1.1,0.1-2.3-0.8-2.4-1.9
			c-0.1-1.1,0.8-2.3,1.9-2.4c1.1-0.1,2.3,0.8,2.4,1.9C117.2,185.6,116.4,186.7,115.1,186.8z M126.3,192.7c-1.9,0.2-3.5-1.2-3.7-3
			s1.2-3.5,3-3.7c1.9-0.2,3.5,1.2,3.7,3C129.4,190.8,128.1,192.5,126.3,192.7z M134,178.5c-2.4,0.3-4.7-1.6-4.9-4
			c-0.3-2.4,1.6-4.7,4-4.9c2.4-0.3,4.7,1.6,4.9,4C138.3,176,136.5,178.3,134,178.5z M142.4,188.2c-1.5,0.2-2.9-1-3.1-2.5
			c-0.2-1.5,1-2.9,2.5-3.1c1.5-0.2,2.9,1,3.1,2.5C145,186.6,143.9,188,142.4,188.2z"/>
	</g>
	<g>
		<path class="st2" d="M133.2,61.1c0,0,5.1-0.3,5.8-6.3s-2.7-9.9-2.7-9.9s-2.5-3.2-5.3-2.9s-4.6,4-4.6,4s-2.4,4.5-0.4,10.2
			C128.1,61.9,133.2,61.1,133.2,61.1z"/>
		<path class="st1" d="M135.9,54.5c0.4-3.1-0.9-5.8-0.9-5.8"/>
		<path class="st1" d="M132.8,57.8c0,0,2.7-0.2,3.1-3.3"/>
	</g>
	<path class="st4" d="M253.2,188.1c0,0-0.6-0.1-2.1,0c-1.6,0.2-2.5-0.9-2.5-0.9s-5.5-4.8-5.5-10.7c-0.1-5.8,2.7-9.2,2.7-9.2
		s1.6-2.2,4.4-2.3c2.9-0.1,6.6,2.7,6.6,2.7s4.4-1.3,7.1-0.3s3.4,3.7,3.4,3.7s1.4,4.1-0.6,9.5c-2,5.5-8.8,8.2-8.8,8.2s-1.2,0.6-2.6,0
		S253.2,188.1,253.2,188.1z"/>
	<path class="st4" d="M260.4,161.5c0,0-3.3,0.6-3.7,6.3"/>
	<path class="st4" d="M256.9,164.3c-4.6,1.1-6.1-7.4-6.1-7.4S258.9,159.9,256.9,164.3z"/>
	<path class="st4" d="M246.4,174.6c0,0,0.1-5.1,3.9-6.5"/>
	<g>
		<g>
			<path class="st4" d="M361.5,322.7c0,0,5.7,0.5,5.7-5.7C361,317.1,361.5,322.7,361.5,322.7z"/>
			<path class="st4" d="M356,328.1c0,0,3.7,4.3,8,0C359.7,323.8,356,328.1,356,328.1z"/>
			<path class="st4" d="M356,328c0,0-4.3-3.7,0-8C360.3,324.4,356,328,356,328z"/>
			<path class="st4" d="M361.5,322.7c0,0-8.7,8.2-17.4,22.9"/>
			<path class="st4" d="M350.3,335.9c0,0,4.2,3.8,7.9-1C353.4,331.1,350.3,335.9,350.3,335.9z"/>
			<path class="st4" d="M350.3,335.8c0,0-4.7-3.1-1-7.9C354.1,331.6,350.3,335.8,350.3,335.8z"/>
		</g>
		<path class="st4" d="M351.2,312.6c0,0,5.4-1.7,3.1-7.4C348.7,307.6,351.2,312.6,351.2,312.6z"/>
		<path class="st4" d="M348.2,319.7c0,0,5,2.6,7.4-3C350,314.3,348.2,319.7,348.2,319.7z"/>
		<path class="st4" d="M348.2,319.6c0,0-5.4-1.8-3-7.4C350.8,314.7,348.2,319.6,348.2,319.6z"/>
		<path class="st4" d="M351.2,312.6c0,0-5,10.9-7.5,27.8"/>
		<path class="st4" d="M345.7,328.9c0,0-5.6-1.1-3.9-6.9C347.7,323.7,345.7,328.9,345.7,328.9z"/>
	</g>
	<g>
		<path class="st2" d="M179.4,240c0,0-1.8,11.6-3.5,21c-0.1,0.3,0.1,0.7,0.4,0.9c1.1,0.8,1.6,2.2,1,3.5c-0.4,1.1-1.6,1.9-2.7,1.9
			c-1.1,0-2-0.6-2.5-1.4c-0.2-0.3-0.5-0.5-0.9-0.4c-5.8,0.5-12.8-1-12.8-1s-7-1.3-12.2-4c-0.3-0.2-0.7-0.1-1,0.1
			c-0.8,0.6-1.9,0.7-2.9,0.3c-1.1-0.5-1.8-1.6-1.8-2.8c0-1.5,1.1-2.6,2.3-2.8c0.3-0.1,0.6-0.3,0.7-0.7c2-9.3,4.9-20.7,4.9-20.7"/>
		<path class="st2" d="M163.9,236.9l16.1,3.2c0.5,0.1,0.9-0.1,1-0.5l0.9-4.4c0.1-0.4-0.3-0.7-0.7-0.8l-16.1-3.2L149,228
			c-0.5-0.1-0.9,0.1-1,0.5l-0.9,4.4c-0.1,0.4,0.3,0.7,0.7,0.8L163.9,236.9z"/>
		<path class="st2" d="M177.4,233.7c-4.3-6.6-11.3-7.9-11.3-7.9s-7-1.6-13.5,2.9"/>
		<line class="st1" x1="153.9" y1="249.2" x2="158.2" y2="246.3"/>
		<line class="st1" x1="158.2" y1="246.3" x2="161.2" y2="250.7"/>
		<line class="st1" x1="161.2" y1="250.7" x2="165.6" y2="247.7"/>
		<line class="st1" x1="165.6" y1="247.7" x2="168.5" y2="252.1"/>
	</g>
	<g>
		<g>
			<path class="st5" d="M51,194.2c-0.4,0.1-0.8-0.2-0.9-0.6c-0.8-4.1,2-8.1,6.1-8.9c0.4-0.1,0.8,0.2,0.9,0.6
				c0.1,0.4-0.2,0.8-0.6,0.9c-3.3,0.6-5.5,3.8-4.9,7C51.7,193.7,51.4,194.1,51,194.2z"/>
		</g>
		<g>
			<path class="st5" d="M62.8,188.8c-0.1,0-0.1,0-0.2,0c-0.4,0-0.7-0.4-0.7-0.9c0.2-2.4,1.6-4.6,3.7-5.8c0.4-0.2,0.9-0.1,1.1,0.3
				c0.2,0.4,0.1,0.9-0.3,1.1c-1.7,1-2.8,2.7-3,4.6C63.4,188.5,63.2,188.8,62.8,188.8z"/>
		</g>
		<g>
			<path class="st5" d="M50.4,181.8c-0.4,0.1-0.8-0.2-0.9-0.6c-0.4-2.3,1.1-4.6,3.5-5c0.4-0.1,0.8,0.2,0.9,0.6
				c0.1,0.4-0.2,0.8-0.6,0.9c-1.5,0.3-2.5,1.7-2.2,3.2C51.1,181.3,50.9,181.7,50.4,181.8z"/>
		</g>
		<g>
			<path class="st5" d="M58.9,199.7c-2.4,0.4-4.9-0.3-6.7-2c-1.1,1.5-2.8,2.4-4.6,2.8c-4.1,0.8-8.1-2-8.9-6.1
				c-0.5-2.6,0.5-5.3,2.5-7.1c-0.3-0.5-0.6-1.1-0.7-1.7c-0.4-2.3,1.1-4.6,3.5-5c0.5-0.1,1-0.1,1.5,0c0.6-4.4,3.9-7.9,8.4-8.7
				c4.4-0.8,8.7,1.3,10.9,5.1c0.3-0.2,0.7-0.3,1.1-0.4c2.3-0.4,4.6,1.1,5,3.5c0.1,0.4,0.1,0.8,0.1,1.2c3.1,0.6,5.5,3,6.1,6.1
				c0.8,4.1-2,8.1-6.1,8.9c-2.2,0.4-4.4-0.2-6.1-1.5C63.9,197.3,61.7,199.2,58.9,199.7z M52.1,195l0.7,0.9c1.4,1.8,3.6,2.6,5.8,2.2
				c2.5-0.5,4.5-2.5,4.9-5l0.3-1.7l1.1,1.3c1.4,1.6,3.6,2.4,5.7,2c3.3-0.6,5.5-3.8,4.9-7c-0.5-2.7-2.8-4.8-5.5-5l-1-0.1l0.3-1
				c0.1-0.4,0.2-0.9,0.1-1.3c-0.3-1.5-1.7-2.5-3.2-2.2c-0.4,0.1-0.9,0.3-1.2,0.5l-0.8,0.6l-0.4-0.9c-1.7-3.7-5.6-5.7-9.6-5
				s-7,4.1-7.2,8.2l-0.1,1.1l-1-0.4c-0.5-0.2-1-0.3-1.6-0.2c-1.5,0.3-2.5,1.7-2.2,3.2c0.1,0.6,0.4,1.1,0.8,1.5l0.7,0.7l-0.8,0.6
				c-1.9,1.4-2.9,3.7-2.5,6c0.6,3.3,3.8,5.5,7,4.9c1.7-0.3,3.2-1.4,4.1-2.9L52.1,195z"/>
		</g>
		<g>
			<path class="st5" d="M65.2,210.9l-8.3,1.5c-0.5,0.1-1-0.2-1.1-0.7l-4.4-15.1l1.5-0.4l4.3,14.6l7.2-1.3l-1.1-15.2l1.6-0.1
				l1.1,15.7C66.1,210.4,65.7,210.8,65.2,210.9z"/>
		</g>
		<g>
			<path class="st5" d="M57.3,202.9c-0.4,0.1-0.8-0.2-0.9-0.6l-0.9-3c-0.1-0.4,0.1-0.9,0.5-1s0.9,0.1,1,0.5l0.9,3
				C58,202.3,57.8,202.8,57.3,202.9L57.3,202.9z"/>
		</g>
		<g>
			<path class="st5" d="M61.4,202.1C61.4,202.1,61.4,202.2,61.4,202.1c-0.5,0-0.9-0.3-0.9-0.7l-0.2-3c0-0.4,0.3-0.8,0.7-0.8
				s0.8,0.3,0.8,0.7l0.2,3C62.1,201.7,61.8,202.1,61.4,202.1z"/>
		</g>
	</g>
	<g>
		<g>
			<path class="st2" d="M224.4,74.5c0.8,0.4,1.8,0.2,2.3-0.4c9.6-11.5,16.3-23.5,16.3-23.5c1.4-2.8,0.3-6.3-2.5-7.8
				s-6.3-0.3-7.8,2.5c0,0-5.7,12.5-9.3,27C223.1,73.2,223.5,74.1,224.4,74.5z"/>
			<path class="st4" d="M241.9,43.8c0.6-0.2,1.2-0.6,1.2-0.6c1.7-1,1.8-1.7,1.8-1.7l0,0c0,0-0.5-0.5-2.5-0.3
				c0.5-1.9,0.1-2.5,0.1-2.5s-0.7,0-2,1.5c-1-1.7-1.7-1.8-1.7-1.8l0,0c0,0-0.5,0.5-0.3,2.4c0,0,0.1,0.6,0.3,1.3"/>
			<path class="st1" d="M231.1,49c0,0,0.9,1.2,3.4,2.6"/>
			<path class="st1" d="M238.7,57.6c0,0-1.5-0.1-4-1.2"/>
			<path class="st1" d="M228,57.2c0,0,0.8,1.1,3,2.4"/>
		</g>
		<path class="st4" d="M240.8,46.2c0,0,1.1,1.8-0.1,4.2"/>
	</g>
	<g>
		<path class="st5" d="M226.5,241.8l-0.4-0.6c-0.2-0.4-0.7-0.5-1.1-0.3c-0.4,0.2-0.5,0.7-0.3,1.1l0.4,0.6c0.1,0.2,0.3,0.3,0.5,0.4
			c0.2,0.1,0.4,0,0.6-0.1C226.6,242.6,226.7,242.2,226.5,241.8L226.5,241.8z"/>
		<path class="st5" d="M251.3,258.8l-21.5-37.1c-0.2-0.4-0.7-0.5-1.1-0.3l-13.8,8.1c-0.2,0.1-0.3,0.3-0.4,0.5s0,0.4,0.1,0.6
			l13.4,23.3c0.1,0.2,0.3,0.3,0.5,0.4c0.2,0.1,0.4,0,0.6-0.1l10.6-6.2l1,1.8c-0.3,0.3-0.5,0.6-0.6,1c-0.1,0.5,0,1,0.3,1.4
			c0.7,1,1.2,1.7,1.4,2c0.3,0.6,0.8,1.6,1.2,2.5c0.5,1,0.9,2,1.3,2.6c0.2,0.3,0.5,0.8,1.1,1.5c0.3,0.4,0.7,0.7,1.2,0.8
			c0.6,0.1,1.2,0.1,1.7-0.2l2.6-1.5C251.4,259.6,251.5,259.1,251.3,258.8L251.3,258.8z M229,252.3l-12.6-22l1.2-0.7l5.9,10
			c0.1,0.2,0.3,0.3,0.5,0.4c0.2,0.1,0.4,0,0.6-0.1c0.4-0.2,0.5-0.7,0.3-1.1l-5.9-10l9.9-5.8l12.6,22L229,252.3z M241.1,247.1
			l1.2-0.7l1,1.7l-1.2,0.7L241.1,247.1z M247.6,260c-0.3,0.2-0.7,0.1-0.9-0.2c-0.7-0.9-0.9-1.2-1-1.4c-0.3-0.6-0.8-1.6-1.2-2.5
			c-0.5-1-0.9-2-1.3-2.6c-0.2-0.4-0.7-1.1-1.5-2.2c-0.1-0.1,0-0.2,0-0.2s0-0.1,0.1-0.2l2.3-1.3l5.5,9.4L247.6,260z"/>
		<path class="st5" d="M229.6,226c-0.3-0.5-0.7-0.8-1.2-0.9c-0.5-0.1-1.1-0.1-1.5,0.2c-0.5,0.3-0.8,0.7-0.9,1.2
			c-0.1,0.5-0.1,1.1,0.2,1.5c0.3,0.5,0.7,0.8,1.2,0.9c0.5,0.1,1.1,0.1,1.5-0.2C229.8,228.2,230.2,227,229.6,226L229.6,226z
			 M228.1,227.4c-0.2,0.1-0.5,0.1-0.6-0.2c-0.1-0.1-0.1-0.2,0-0.3c0-0.1,0.1-0.2,0.2-0.3c0.2-0.1,0.5-0.1,0.6,0.2
			S228.3,227.3,228.1,227.4L228.1,227.4z"/>
	</g>
	<g>
		<path class="st5" d="M134.5,121.2c0.2,0.3,0.5,0.6,0.7,0.9c0.3,0.3,0.8,0.4,1.1,0.1s0.4-0.8,0.1-1.1c-0.2-0.3-0.5-0.6-0.7-0.9
			c-0.1-0.1-0.2-0.2-0.3-0.2c-0.3-0.1-0.6-0.1-0.8,0.1C134.3,120.4,134.2,120.9,134.5,121.2L134.5,121.2z"/>
		<path class="st5" d="M125.8,108.6c0.6,1.7,2.9,5.1,7,10.4c0.3,0.3,0.8,0.4,1.1,0.1s0.4-0.8,0.1-1.1c-4.9-6.3-6.4-8.9-6.8-10
			c-0.7-2-0.5-4.1,0.4-6c0.4-0.8,0.9-1.6,1.6-2.2c-0.1,0.2-0.1,0.5-0.1,0.7c-0.2,1.9,0,4.2,0.8,6.5c1.2,3.4,7.6,14.9,10.7,20.5
			l-0.9,0.3c-0.4,0.1-0.6,0.6-0.5,1l4.9,14.3c0.1,0.4,0.6,0.6,1,0.5l4.5-1.5c0.2-0.1,0.4-0.2,0.4-0.4s0.1-0.4,0-0.6l-4.9-14.3
			c-0.1-0.2-0.2-0.4-0.4-0.4s-0.4-0.1-0.6,0l-0.2,0.1c0.3-8,0.7-20.6-0.5-23.9c-0.8-2.4-2.5-4.3-4.7-5.4s-4.8-1.3-7.2-0.5
			s-4.3,2.5-5.4,4.7C125.1,103.7,124.9,106.2,125.8,108.6L125.8,108.6z M144,128.2l4.4,12.8l-3,1l-4.4-12.8L144,128.2z M138.1,98.6
			c1.9,0.9,3.3,2.5,3.9,4.5c0.7,2,0.9,8.8,0.6,18.6c-1-6.6-2.3-15.1-3.2-17.7c-0.8-2.3-1.9-4.3-3.3-5.6c-0.2-0.2-0.4-0.3-0.5-0.5
			C136.4,97.9,137.2,98.2,138.1,98.6L138.1,98.6z M131.4,98.7l6.5,19.1c0.1,0.4,0.6,0.6,1,0.5s0.6-0.6,0.5-1l-6.5-19.1
			c0.6,0.1,1.3,0.6,2,1.3c1.2,1.2,2.2,3,2.9,5c1.1,3.2,2.9,15.4,3.8,21.9c-3.2-5.7-9.2-16.5-10.3-19.7c-0.7-2.1-1-4.1-0.8-5.8
			C130.8,99.9,131,99.2,131.4,98.7L131.4,98.7z"/>
	</g>
	<polyline class="st4" points="284.9,143 289.5,140.6 292,145.2 296.7,142.8 299.1,147.5 	"/>
	<polyline class="st4" points="190.9,193.9 196,195.5 197.5,190.4 202.6,192 204.1,186.9 209.1,188.5 210.7,183.5 	"/>
	<g>
		<path class="st6" d="M252.6,1.1c0.2,0.3,0,0.7-0.3,0.9c-0.1,0.1-0.2,0.1-0.3,0.1c-0.2,0-0.5-0.1-0.6-0.4L250.5,0H248l7,13.4
			l14-7.3L265.8,0H252L252.6,1.1z"/>
		<path class="st6" d="M256.2,14.9l1.4,0.4c0.3,0.1,0.8,0.1,1.2-0.1l9.4-4.8c0.4-0.2,0.7-0.6,0.8-0.9V9.4l0.4-1.3
			c0.1-0.2,0.1-0.4,0.1-0.6l-13.8,7.2C255.8,14.7,256,14.8,256.2,14.9z"/>
		<path class="st7" d="M243.7,390.7c-0.1,0.2-0.1,0.5-0.1,0.7l13.9-7.2c-0.2-0.2-0.4-0.3-0.6-0.4l-2-0.6l-10.6,5.5L243.7,390.7z"/>
		<path class="st5" d="M243.9,392.1l0.3,0.6l14.1-7.3l-0.3-0.6c-0.1-0.2-0.2-0.4-0.4-0.5l-13.9,7.2
			C243.7,391.7,243.8,391.9,243.9,392.1z"/>
		<path class="st5" d="M255.2,13.9c0.1,0.3,0.3,0.5,0.5,0.6l13.8-7.2c0-0.3-0.1-0.5-0.2-0.8L269,6.1l-14.1,7.3L255.2,13.9z"/>
		<path class="st5" d="M270.5,6.1L270.5,6.1L270.5,6.1C270.5,6.2,270.5,6.1,270.5,6.1z"/>
		<path class="st5" d="M247.4,394.1l0.7,1.4c0.1,0.2,0.4,0.4,0.6,0.4c0.1,0,0.2,0,0.3-0.1c0.3-0.2,0.5-0.6,0.3-0.9l-0.7-1.4
			c-0.2-0.3-0.6-0.5-0.9-0.3C247.4,393.3,247.2,393.7,247.4,394.1z"/>
		<path class="st5" d="M252,2.1c0.1,0,0.2,0,0.3-0.1c0.3-0.2,0.5-0.6,0.3-0.9L252,0h-1.5l0.9,1.7C251.5,2,251.7,2.1,252,2.1z"/>
		<path class="st5" d="M250.9,397.9c-0.2-0.3-0.6-0.5-0.9-0.3c-0.3,0.2-0.5,0.6-0.3,0.9l0.8,1.5h1.5L250.9,397.9z"/>
		<path class="st5" d="M244,387.6c0.4,0.1,0.6,0.5,0.4,0.9l-0.1,0.3l10.6-5.5l-0.3-0.1c-0.4-0.1-0.6-0.5-0.4-0.9
			c0.1-0.4,0.5-0.6,0.9-0.4l1.5,0.5c0.3-0.2,0.4-0.5,0.2-0.9c-0.2-0.3-0.6-0.5-0.9-0.3l-13.8,7.1c-0.3,0.2-0.5,0.6-0.3,0.9
			c0.1,0.2,0.4,0.4,0.6,0.4c0.1,0,0.1,0,0.2-0.1l0.5-1.5C243.3,387.7,243.6,387.5,244,387.6z"/>
		<path class="st5" d="M269,6.1l0.6-0.3c0.3-0.2,0.7,0,0.9,0.3V6l-3.1-6h-1.5L269,6.1z"/>
		<path class="st5" d="M270.2,7l-0.8,0.4c0,0.2,0,0.4-0.1,0.6L269,9.3v0.1c-0.1,0.3-0.4,0.7-0.8,0.9l-9.4,4.8
			c-0.4,0.2-0.9,0.3-1.2,0.1l-1.4-0.4c-0.2-0.1-0.4-0.2-0.6-0.3l-0.6,0.3c-0.1,0.1-0.2,0.1-0.3,0.1c-0.2,0-0.5-0.1-0.6-0.4
			c-0.2-0.3,0-0.7,0.3-0.9l0.5-0.3L248,0h-1.5l7.5,14.5c0.4,0.8,1,1.3,1.9,1.6l1.3,0.4c0.3,0.1,0.6,0.2,0.9,0.2
			c0.5,0,1.1-0.2,1.4-0.4l9.4-4.8c0.6-0.3,1.3-1,1.5-1.8l0.4-1.3c0.2-0.8,0.2-1.5-0.2-2.2C270.7,6.5,270.5,6.9,270.2,7z"/>
		<path class="st5" d="M257.3,382.6l-0.7-0.2c0,0,0,0-0.1,0.1l-1.6,0.8l2,0.6c0.2,0.1,0.5,0.2,0.6,0.4l0.7-0.4
			c0.3-0.2,0.7,0,0.9,0.3c0.2,0.3,0,0.7-0.3,0.9l-0.6,0.3l7.6,14.6h1.5l-8.2-15.8C258.8,383.4,258.1,382.8,257.3,382.6z"/>
		<path class="st5" d="M244.2,392.7l-0.5,0.3c-0.1,0.1-0.2,0.1-0.3,0.1c-0.2,0-0.5-0.1-0.6-0.4c-0.2-0.3,0-0.7,0.3-0.9l0.6-0.3
			c0-0.2,0-0.5,0.1-0.7l0.6-2l-1.6,0.8h-0.1l-0.2,0.7c-0.2,0.8-0.2,1.7,0.2,2.4l3.8,7.3h1.5L244.2,392.7z"/>
		<path class="st5" d="M243.7,391.5l-0.6,0.3c-0.3,0.2-0.5,0.6-0.3,0.9c0.1,0.2,0.4,0.4,0.6,0.4c0.1,0,0.2,0,0.3-0.1l0.5-0.3
			l-0.3-0.6C243.8,391.9,243.7,391.7,243.7,391.5z"/>
		<path class="st5" d="M258,384.8l0.3,0.6l0.6-0.3c0.3-0.2,0.5-0.6,0.3-0.9s-0.6-0.5-0.9-0.3l-0.7,0.4
			C257.7,384.4,257.9,384.6,258,384.8z"/>
		<path class="st5" d="M255.2,13.9l-0.3-0.5l-0.5,0.3c-0.3,0.2-0.5,0.6-0.3,0.9c0.1,0.2,0.4,0.4,0.6,0.4c0.1,0,0.2,0,0.3-0.1
			l0.6-0.3C255.5,14.4,255.3,14.2,255.2,13.9z"/>
		<path class="st5" d="M269.6,5.8L269,6.1l0.3,0.5c0.1,0.3,0.2,0.5,0.2,0.8l0.8-0.4c0.3-0.2,0.4-0.5,0.3-0.8c0,0,0-0.1-0.1-0.1
			C270.3,5.8,269.9,5.6,269.6,5.8z"/>
		<path class="st5" d="M254.2,382.3c-0.1,0.4,0.1,0.7,0.4,0.9l0.3,0.1l1.6-0.8c0,0,0.1,0,0.1-0.1l-1.5-0.5
			C254.7,381.8,254.3,382,254.2,382.3z"/>
		<path class="st5" d="M244.4,388.7l0.1-0.3c0.1-0.4-0.1-0.7-0.4-0.9c-0.4-0.1-0.7,0.1-0.9,0.4l-0.5,1.5h0.1L244.4,388.7z"/>
	</g>
	<g>
		<path class="st6" d="M399.4,298.6l-0.1,5.1h0.7v-5.9c-0.1,0-0.3,0.1-0.4,0.2C399.5,298.2,399.4,298.4,399.4,298.6z"/>
		<polygon class="st6" points="400,305.1 399.2,305.1 399.2,308.3 400,308.3 		"/>
		<polygon class="st6" points="400,333.3 393.7,333.2 393.4,348 400,348.2 		"/>
		<path class="st6" d="M393.4,349.4l-0.2,10.7c0,0.2,0.1,0.5,0.3,0.6c0.2,0.2,0.4,0.3,0.6,0.3s4.5,0.1,6,0.1v-11.6L393.4,349.4z"/>
		<path class="st6" d="M400,309.7h-0.9l-0.1,4.6c0,0,0.1,1.6-1.2,2.5l-0.3,0.2c-1.2,0.8-3.6,2.4-3.7,5.6l-0.2,9.3l6.3,0.1v-22.3H400
			z M397.9,329.2c0,0.4-0.3,0.7-0.7,0.7l0,0c-0.4,0-0.7-0.3-0.7-0.7l0.1-3.6c0-0.4,0.3-0.7,0.7-0.7c0.4,0,0.7,0.3,0.7,0.7
			L397.9,329.2z M398.1,322.3c-0.1,0.3-0.4,0.5-0.6,0.5c-0.1,0-0.2,0-0.2,0c-0.4-0.1-0.5-0.5-0.4-0.9c0.2-0.6,0.5-1.3,1.1-1.8
			c0.3-0.3,0.7-0.3,1,0s0.3,0.7,0,1C398.6,321.2,398.3,321.7,398.1,322.3z"/>
		<path class="st5" d="M394,361c-0.2,0-0.4-0.1-0.6-0.3c-0.2-0.2-0.3-0.4-0.3-0.6l0.2-10.7h-0.4V348h0.4l0.3-14.8h-0.4v-1.4h0.4
			l0.2-9.3c0.1-3.2,2.5-4.8,3.7-5.6l0.3-0.2c1.3-0.9,1.2-2.5,1.2-2.5l0.1-4.6h-0.4v-1.4h0.4l0.1-3.2h-0.4v-1.4h0.4l0.1-5.1
			c0-0.3,0.1-0.4,0.2-0.5s0.2-0.1,0.4-0.2v-1.4c-0.5,0-0.9,0.2-1.3,0.5c-0.4,0.4-0.7,0.9-0.7,1.5l-0.3,15.7c0,0,0.1,0.9-0.6,1.4
			l-0.2,0.2c-1.3,0.8-4.2,2.8-4.3,6.7l-0.8,37.5c0,0.6,0.2,1.2,0.6,1.6s1,0.7,1.6,0.7c0.2,0,4.5,0.1,6,0.1v-1.4
			C398.5,361.1,394.2,361,394,361z"/>
		<polygon class="st5" points="400,331.9 393.7,331.8 393.7,333.2 400,333.3 		"/>
		
			<rect x="392.8" y="332.3" transform="matrix(2.068494e-02 -0.9998 0.9998 2.068494e-02 52.9672 719.0487)" class="st5" width="1.4" height="0.4"/>
		<polygon class="st5" points="400,348.2 393.4,348 393.4,349.4 400,349.5 		"/>
		
			<rect x="392.5" y="348.5" transform="matrix(2.068494e-02 -0.9998 0.9998 2.068494e-02 36.4706 734.5527)" class="st5" width="1.4" height="0.4"/>
		<polygon class="st5" points="400,308.3 399.2,308.3 399.1,309.7 400,309.7 		"/>
		
			<rect x="398.3" y="308.7" transform="matrix(2.068494e-02 -0.9998 0.9998 2.068494e-02 81.8392 701.4495)" class="st5" width="1.4" height="0.4"/>
		<polygon class="st5" points="400,303.8 399.3,303.8 399.2,305.1 400,305.1 		"/>
		
			<rect x="398.3" y="304.2" transform="matrix(2.068494e-02 -0.9998 0.9998 2.068494e-02 86.4354 697.0287)" class="st5" width="1.4" height="0.4"/>
		<path class="st5" d="M397.3,324.9c-0.4,0-0.7,0.3-0.7,0.7l-0.1,3.6c0,0.4,0.3,0.7,0.7,0.7l0,0c0.4,0,0.7-0.3,0.7-0.7l0.1-3.6
			C398,325.2,397.7,324.9,397.3,324.9z"/>
		<path class="st5" d="M398.9,320c-0.3-0.3-0.7-0.3-1,0c-0.5,0.5-0.9,1.3-1.1,1.8c-0.1,0.4,0.1,0.7,0.4,0.9c0.1,0,0.2,0,0.2,0
			c0.3,0,0.5-0.2,0.6-0.5c0.2-0.6,0.5-1,0.7-1.3C399.1,320.7,399.1,320.3,398.9,320z"/>
		<path class="st5" d="M6.8,362.6L6.8,362.6c1.3,0,2.3-1,2.3-2.2l0.8-37.5c0.1-3.5-2.5-5.6-3.8-6.6c-0.2-0.1-0.3-0.3-0.5-0.4
			c-0.7-0.6-0.6-1.4-0.6-1.4l0.3-15.7c0-0.5-0.2-1.1-0.5-1.5c-0.4-0.4-0.9-0.7-1.5-0.7l-3.1-0.1c-0.1,0-0.1,0-0.2,0v1.4h0.1l3.1,0.1
			c0.3,0,0.4,0.1,0.5,0.2s0.2,0.3,0.2,0.5l-0.1,5.1h0.7v1.4H3.8l-0.1,3.2h0.7v1.4H3.7l-0.1,4.6c0,0.3-0.1,1.6,1,2.6
			c0.1,0.1,0.3,0.3,0.5,0.4c1.2,1,3.3,2.7,3.3,5.5l-0.2,9.3h0.7v1.4H8.2l-0.3,14.8h0.7v1.4H7.9l-0.2,10.7c0,0.5-0.4,0.9-0.9,0.9l0,0
			l-6.3-0.1c0,0-0.2,0-0.5,0v1.4c0.3,0,0.5,0,0.5,0L6.8,362.6z"/>
		<polygon class="st5" points="0,333.3 8.2,333.5 8.3,332.1 0,331.9 		"/>
		
			<rect x="8" y="332.5" transform="matrix(2.068494e-02 -0.9998 0.9998 2.068494e-02 -324.2453 334.5769)" class="st5" width="1.4" height="0.7"/>
		<polygon class="st5" points="0,349.5 7.9,349.7 7.9,348.3 0,348.2 		"/>
		
			<rect x="7.6" y="348.6" transform="matrix(2.068494e-02 -0.9998 0.9998 2.068494e-02 -340.7417 350.081)" class="st5" width="1.4" height="0.7"/>
		<polygon class="st5" points="0,309.7 3.8,309.8 3.8,308.4 0,308.3 		"/>
		
			<rect x="3.5" y="308.8" transform="matrix(2.068494e-02 -0.9998 0.9998 2.068494e-02 -304.9624 306.8821)" class="st5" width="1.4" height="0.7"/>
		<polygon class="st5" points="0,305.1 3.9,305.2 3.9,303.9 0,303.8 		"/>
		
			<rect x="3.5" y="304.2" transform="matrix(2.068494e-02 -0.9998 0.9998 2.068494e-02 -300.3662 302.4614)" class="st5" width="1.4" height="0.7"/>
	</g>
	<g>
		<path class="st6" d="M382,141.6c-0.2,3.7,2.7,5.2,2.8,5.2c0,0,5.1,2.3,15.2-2.9c0-0.9,0-1.8,0-2.7c-1.7,0.9-3.4,1.6-5.1,2.2
			c-0.1,0-0.1,0-0.2,0c-0.3,0-0.5-0.2-0.6-0.5c-0.1-0.4,0.1-0.7,0.4-0.9c1.8-0.6,3.7-1.4,5.5-2.4c0-2.2,0-4.4,0-6.6
			c-0.4,0.2-7.1,4.5-14,4.8C385.8,137.9,382.2,138.1,382,141.6z M387,143.4c0.8,0.1,1.8,0,3-0.1c0.4-0.1,0.7,0.2,0.8,0.6
			c0,0.4-0.2,0.7-0.6,0.8c-0.8,0.1-1.6,0.2-2.3,0.2c-0.4,0-0.7,0-1,0c-0.4,0-0.6-0.4-0.6-0.7C386.3,143.6,386.7,143.3,387,143.4z"/>
		<path class="st6" d="M378.8,139.9c0.1,0.3,0.3,0.7,0.6,1.2c0.1,0.2,0.1,0.4,0,0.6s-0.3,0.3-0.5,0.4c-0.7,0.1-1.1,0.3-1.4,0.5
			c0.3,0.2,0.7,0.3,1.4,0.5c0.2,0.1,0.4,0.2,0.5,0.4s0.1,0.4-0.1,0.6c-0.3,0.5-0.5,0.9-0.6,1.1c0.3-0.1,0.7-0.3,1.2-0.6l0,0
			c0,0,0.5-0.3,0.9-0.7c-0.2-0.7-0.3-1.5-0.2-2.3c0-0.2,0-0.4,0.1-0.5c-0.4-0.3-0.7-0.5-0.7-0.5C379.4,140.2,379.1,140,378.8,139.9z
			"/>
		<path class="st5" d="M379.9,144.7L379.9,144.7c-0.5,0.3-0.9,0.5-1.2,0.6c0.1-0.3,0.3-0.7,0.6-1.1c0.1-0.2,0.1-0.4,0.1-0.6
			c-0.1-0.2-0.3-0.4-0.5-0.4c-0.7-0.2-1.1-0.3-1.4-0.5c0.3-0.2,0.7-0.3,1.4-0.5c0.2,0,0.4-0.2,0.5-0.4s0.1-0.4,0-0.6
			c-0.3-0.5-0.5-0.9-0.6-1.2c0.3,0.1,0.7,0.3,1.2,0.6c0,0,0.4,0.2,0.7,0.5c0.1-0.5,0.2-1,0.4-1.4c-0.3-0.2-0.5-0.3-0.5-0.3
			c-1.8-1.1-2.6-1-2.9-0.9c-0.2,0.1-0.4,0.2-0.5,0.5c-0.1,0.2-0.2,0.8,0.5,2.1c-1.4,0.5-1.8,1.1-1.9,1.3s-0.1,0.4,0,0.6
			c0.1,0.2,0.5,0.8,1.8,1.3c-0.6,1.2-0.5,1.9-0.5,2.1c0.1,0.2,0.2,0.4,0.5,0.5c0.1,0,0.2,0,0.4,0c0.5,0,1.3-0.2,2.6-1
			c0,0,0.3-0.2,0.7-0.5c-0.2-0.4-0.4-0.8-0.5-1.3C380.4,144.3,379.9,144.7,379.9,144.7z"/>
		<path class="st5" d="M384.8,146.9c-0.1-0.1-3-1.6-2.8-5.2c0.2-3.5,3.9-3.7,4-3.7c6.9-0.4,13.6-4.6,14-4.8c0-0.6,0-1.1,0-1.7
			c-0.5,0.4-0.7,0.6-0.8,0.6c-0.1,0-6.7,4.3-13.3,4.6c-1.4,0.1-3.8,0.8-4.8,3.1c0.2,0.2,0.5,0.4,0.8,0.7l-1,0.9
			c-0.1-0.1-0.1-0.1-0.2-0.2c0,0.2-0.1,0.4-0.1,0.5c-0.1,0.9,0,1.7,0.2,2.3l0,0l0.9,1c-0.1,0.1-0.3,0.2-0.4,0.4
			c1,1.9,2.7,2.8,2.8,2.8c0.1,0.1,1.4,0.7,4,0.7s6.6-0.7,11.8-3.3c0-0.5,0-1,0-1.5C389.9,149.1,384.8,146.9,384.8,146.9z"/>
		<path class="st5" d="M380.9,141.2l1-0.9c-0.3-0.3-0.5-0.5-0.8-0.7c-0.2,0.4-0.3,0.9-0.4,1.4C380.8,141.1,380.8,141.1,380.9,141.2z
			"/>
		<path class="st5" d="M380.9,143.9L380.9,143.9c0.1,0.5,0.3,0.9,0.5,1.3c0.1-0.1,0.3-0.2,0.4-0.4L380.9,143.9z"/>
		<path class="st5" d="M394.5,142.2c-0.4,0.1-0.5,0.5-0.4,0.9c0.1,0.3,0.4,0.5,0.6,0.5c0.1,0,0.1,0,0.2,0c1.6-0.6,3.4-1.3,5.1-2.2
			c0-0.5,0-1,0-1.5C398.1,140.7,396.3,141.6,394.5,142.2z"/>
		<path class="st5" d="M386.9,144.7c0.3,0,0.7,0,1,0c0.7,0,1.4-0.1,2.3-0.2c0.4,0,0.6-0.4,0.6-0.8c0-0.4-0.4-0.6-0.8-0.6
			c-1.2,0.2-2.2,0.2-3,0.1c-0.4,0-0.7,0.2-0.7,0.6C386.3,144.4,386.5,144.7,386.9,144.7z"/>
		<path class="st5" d="M6.2,141.9c14.3-9.8,13.7-17.7,13.7-18c0-0.1-0.2-2-1.6-3.7c-0.3,0.2-0.6,0.3-0.9,0.4l-0.6-1.2
			c0.1-0.1,0.2-0.1,0.4-0.2c-0.6-0.4-1.2-0.8-2.1-1.1c-0.1,0-0.2,0-0.3-0.1c0,0,0,0,0,0.1l-1.2,0.6c-0.1-0.3-0.2-0.6-0.3-0.9
			c-2.6,0-4.3,2.1-4.8,3.4c-2.1,4.7-6.6,8.6-8.4,10.1c0,0.6,0,1.1,0,1.7l0,0c0.3-0.2,6.8-5,9.6-11.2c0.1-0.1,1.2-2.6,3.6-2.6
			c0.4,0,0.8,0.1,1.3,0.2c3.5,1.2,3.8,4.4,3.8,4.5s0.6,7.3-13.1,16.7c-1.9,1.3-3.7,2.3-5.3,3.2c0,0.5,0,1,0,1.5
			C1.9,144.6,4,143.4,6.2,141.9L6.2,141.9z"/>
		<path class="st5" d="M14.8,118.2L14.8,118.2c-0.6-0.2-1.1-0.3-1.5-0.3c0.1,0.3,0.2,0.6,0.3,0.9L14.8,118.2z"/>
		<path class="st5" d="M17.2,119.3c-0.1,0.1-0.3,0.1-0.4,0.2l0.6,1.2c0.2-0.1,0.6-0.3,0.9-0.4C17.9,119.9,17.6,119.6,17.2,119.3z"/>
		<path class="st5" d="M3.9,138.2c-0.2-0.3-0.6-0.4-0.9-0.2c-1,0.6-2,1.2-2.9,1.7c0,0.5,0,1,0,1.5c1.2-0.6,2.5-1.3,3.7-2.1
			C4.1,138.9,4.1,138.5,3.9,138.2z"/>
		<path class="st5" d="M14.5,117c-0.1-0.6-0.1-1-0.1-1.3c0.2,0.2,0.5,0.5,0.9,1c0.1,0.2,0.3,0.3,0.6,0.3c0.2,0,0.4-0.1,0.5-0.3
			c0.4-0.6,0.7-0.9,1-1.1c0,0.3,0.1,0.8,0,1.5c0,0.2,0,0.4,0.2,0.6s0.4,0.2,0.6,0.2c0.6-0.1,1-0.1,1.3-0.1c-0.2,0.2-0.5,0.5-0.9,0.9
			c0,0-0.7,0.4-1.3,0.7c0.4,0.3,0.8,0.6,1,1c0.5-0.3,0.9-0.5,1-0.6c1.7-1.3,1.9-2.2,1.9-2.4c0-0.2-0.1-0.5-0.3-0.6
			c-0.2-0.1-0.7-0.4-2.1-0.3c0.1-1.4-0.3-2-0.5-2.2c-0.1-0.2-0.3-0.2-0.6-0.2c-0.2,0-1,0.1-1.9,1.3c-1-1.1-1.6-1.2-1.8-1.2
			s-0.5,0.1-0.6,0.3c-0.1,0.2-0.6,1-0.2,3c0,0,0,0.3,0.1,0.7c0.5,0,1,0.1,1.5,0.2C14.6,117.7,14.5,117.1,14.5,117z"/>
	</g>
	<g>
		<path class="st6" d="M177.5,393.7c0,0-0.5-4.1-3.4-8.2c-3.2-4.5-3.1-7-3.1-7.1l-0.3-3.2l-9.4,0.8l0.3,3.2c0.1,0.5,0.4,2.8-1.9,7.5
			c-2.3,4.7-2,8.6-2,8.7l0.1,0.9l19.8-1.6L177.5,393.7z M164.2,385.5l-0.2,0.4c-0.7,1.4-1.5,2.8-1.8,4.1c-0.1,0.3-0.1,0.7-0.2,1
			c-0.1,0.6-0.2,1.1-0.2,1.5c0,0.3-0.3,0.6-0.7,0.6H161c-0.4,0-0.6-0.4-0.6-0.8s0.1-1,0.3-1.6c0.1-0.3,0.1-0.7,0.2-1.1
			c0.4-1.6,1.2-3.1,1.9-4.5l0.2-0.4c0.2-0.3,0.6-0.5,0.9-0.3C164.2,384.8,164.4,385.2,164.2,385.5z M165.5,381.9
			c-0.1,0.3-0.3,0.6-0.7,0.6h-0.1c-0.4-0.1-0.6-0.4-0.6-0.8c0.1-0.4,0.1-1.1,0.1-2c0-0.4,0.2-0.7,0.6-0.7c0.4,0,0.7,0.2,0.7,0.6
			C165.7,380.6,165.6,381.4,165.5,381.9z"/>
		<polygon class="st6" points="157.8,397.5 158,400 178,400 177.7,395.9 		"/>
		<path class="st6" d="M171.2,372l-10.7,0.9c-0.4,0-0.4,0.6-0.4,0.6l0.1,1.2l11.7-1l-0.1-1.2C171.7,372.3,171.6,372,171.2,372z"/>
		<path class="st5" d="M157.8,397.5l-0.7,0.1l-0.1-1.4l0.7-0.1l-0.1-0.9c0,0-0.3-4,2-8.7s2-7,1.9-7.5l-0.3-3.2l9.4-0.8l0.3,3.2
			c0,0.1,0,2.6,3.1,7.1c2.9,4.2,3.4,8.2,3.4,8.2l0.1,0.9l0.8-0.1l0.1,1.4l-0.8,0.1l0.3,4.1h1.4l-0.5-6.4c0-0.2-0.5-4.4-3.7-8.9
			c-2.9-4.1-2.9-6.3-2.9-6.4L172,375l-0.7,0.1l-0.1-1.4h0.6l0,0l-11.7,1l0,0l0.6-0.1l0.1,1.4H160l0.3,3.3v0.1c0,0,0.4,2.1-1.8,6.6
			c-2.5,5.1-2.2,9.2-2.1,9.4l0.4,4.6h1.4L157.8,397.5z"/>
		<path class="st5" d="M160.2,374.6l-0.1-1.2c0,0,0-0.6,0.4-0.6l10.7-0.9c0.3,0,0.5,0.3,0.5,0.5l0.1,1.2h0.1l0.1,1.4h0.6
			c0.2,0,0.3-0.1,0.5-0.2c0.1-0.1,0.2-0.3,0.2-0.5l-0.2-2c-0.1-0.6-0.7-1.7-2-1.6l-10.7,0.9c-1.3,0.1-1.7,1.3-1.7,2l0.2,1.9
			c0,0.4,0.3,0.6,0.7,0.6c0,0,0,0,0.1,0h0.3l-0.1-1.4L160.2,374.6z"/>
		<polygon class="st5" points="160.8,374.6 160.2,374.6 160.2,374.6 159.8,374.7 160,376 160.9,376 		"/>
		<polygon class="st5" points="171.8,373.7 171.8,373.7 171.2,373.7 171.4,375.1 172,375 171.9,373.7 		"/>
		
			<rect x="157.7" y="395.4" transform="matrix(0.9966 -8.270405e-02 8.270405e-02 0.9966 -32.1859 15.2231)" class="st5" width="19.9" height="1.4"/>
		
			<rect x="177.6" y="394.5" transform="matrix(0.9966 -8.271053e-02 8.271053e-02 0.9966 -32.0783 16.0771)" class="st5" width="0.8" height="1.4"/>
		
			<rect x="157.1" y="396.2" transform="matrix(0.9966 -8.271053e-02 8.271053e-02 0.9966 -32.2891 14.3831)" class="st5" width="0.7" height="1.4"/>
		<path class="st5" d="M164.9,378.9c-0.4,0-0.7,0.4-0.6,0.7c0.1,0.9,0,1.7-0.1,2c-0.1,0.4,0.2,0.7,0.6,0.8h0.1
			c0.3,0,0.6-0.2,0.7-0.6c0.1-0.4,0.2-1.3,0.1-2.4C165.6,379.1,165.2,378.9,164.9,378.9z"/>
		<path class="st5" d="M163.9,384.6c-0.3-0.2-0.7,0-0.9,0.3l-0.2,0.4c-0.7,1.4-1.5,2.9-1.9,4.5c-0.1,0.4-0.1,0.7-0.2,1.1
			c-0.1,0.6-0.2,1.2-0.3,1.6c0,0.4,0.2,0.7,0.6,0.8h0.1c0.3,0,0.6-0.3,0.7-0.6c0-0.4,0.1-0.9,0.2-1.5c0.1-0.3,0.1-0.7,0.2-1
			c0.3-1.4,1.1-2.8,1.8-4.1l0.2-0.4C164.4,385.2,164.2,384.8,163.9,384.6z"/>
		<path class="st5" d="M160.6,28.7h0.1l19.1-1.6c0.4,0,0.8-0.3,1.1-0.6c0.3-0.4,0.5-0.8,0.4-1.2L179.4,0H178l0.7,8.1l0.8-0.1
			l0.1,1.4l-0.8,0.1l1.3,15.9c0,0.1-0.2,0.4-0.3,0.4l-19.1,1.6c-0.1,0-0.1,0-0.2-0.1c-0.1-0.1-0.1-0.2-0.1-0.2l-1.4-16l-0.7,0.1
			l-0.1-1.4l0.7-0.1L158,0h-1.4l2.2,27.1C159,27.9,159.8,28.7,160.6,28.7z"/>
		
			<rect x="158.2" y="9.7" transform="matrix(0.9966 -8.271053e-02 8.271053e-02 0.9966 -0.3171 13.1496)" class="st5" width="0.7" height="1.4"/>
		
			<rect x="178.7" y="8" transform="matrix(0.9966 -8.271053e-02 8.271053e-02 0.9966 -0.1062 14.8436)" class="st5" width="0.8" height="1.4"/>
		
			<rect x="158.9" y="8.9" transform="matrix(0.9966 -8.270445e-02 8.270445e-02 0.9966 -0.2153 13.9981)" class="st5" width="19.9" height="1.4"/>
	</g>
	<g>
		<path class="st6" d="M34.1,4.5c2.1,0.6,3.5,0.7,4.8,0.7c1.7,0,3.2,0.1,5.8,1.3c3.6,1.7,6,5.2,6.9,6.7v0.1c0.4,0.8,0.8,1.4,1.1,2
			c0.5,0.9,0.9,1.6,1.3,2.3c1,1.7,1.7,2.8,2.4,3.8l0.2,0.3c1.6,2.2,3.5,3.4,5.6,3.6s4.5-0.7,7.1-2.6C75.6,18,78.5,8.9,78.6,8V7.9
			c0-0.1,1.3-3.6,1.3-7.8H78c0.1,3.6-0.5,6.7-0.7,7.5c-0.2,1.2-2.9,9.8-8.4,13.9c-2,1.5-3.7,2.2-5.4,2.2c-0.4,0-0.7,0-1.1-0.1
			c-1.8-0.4-3.6-1.7-5.3-3.9l-0.2-0.3c-0.7-0.9-1.3-1.9-2.2-3.4c-0.3-0.5-0.7-1.2-1.1-2c-0.3-0.5-0.6-1.1-1-1.7
			c-0.1-0.3-3.8-5.3-7.1-7c-1.9-1-3.4-1-5-1.1c-1.4-0.1-2.9-0.2-4.9-0.8h-0.1c-2-1-3.2-2.2-3.9-3.3h-2.2C30.2,1.6,31.6,3.3,34.1,4.5
			z"/>
		<path class="st6" d="M36.1,2.1c1.8,0.6,3.2,0.7,4.5,0.7C42.3,2.9,44,3,46.1,4.1c3.5,1.8,7.2,6.7,7.6,7.3c0,0,0,0,0,0.1
			c0.4,0.6,0.7,1.2,1,1.7c0.4,0.7,0.8,1.4,1.1,1.9c0.8,1.5,1.4,2.4,2.1,3.3l0.2,0.3c1.5,2,2.9,3.1,4.4,3.4c1.6,0.3,3.4-0.3,5.4-1.8
			c5.2-3.9,7.8-12.4,7.9-13V7.2c0.2-0.5,0.8-3.6,0.7-7.1h-9.3l-2.3,12.8c-0.1,0.3-0.3,0.6-0.7,0.6h-0.1c-0.4-0.1-0.6-0.4-0.5-0.8
			L66,0h-4.8L60,6.7c-0.1,0.3-0.3,0.6-0.7,0.6h-0.1c-0.4-0.1-0.6-0.4-0.5-0.8L59.8,0h-5.1l-0.5,2.6c-0.1,0.3-0.3,0.6-0.7,0.6h-0.1
			c-0.4-0.1-0.6-0.4-0.5-0.8L53.3,0h-20C33.9,0.7,34.8,1.4,36.1,2.1z"/>
		<path class="st5" d="M78.8,7.8L78.8,7.8c-0.1,1-3,10.1-9.3,14.8c-2.6,1.9-5,2.8-7.1,2.6c-2.1-0.2-4-1.4-5.6-3.6l-0.2-0.3
			c-0.7-1-1.4-2.1-2.4-3.8c-0.4-0.6-0.8-1.4-1.3-2.3c-0.3-0.6-0.7-1.3-1.1-2v-0.1c-0.9-1.4-3.4-5-6.9-6.7c-2.5-1.2-4.1-1.2-5.8-1.3
			c-1.3,0-2.7,0-4.8-0.7c-2.5-1.2-3.9-3-4.7-4.5h-1.5c0.9,1.9,2.5,4.2,5.7,5.8h0.1c2.3,0.7,3.9,0.7,5.2,0.8c1.6,0,2.9,0,5.2,1.1
			c3.2,1.6,5.5,4.8,6.4,6.2c0,0,0,0.1,0.1,0.1c0.4,0.7,0.7,1.3,1.1,1.9c0.5,0.9,0.9,1.7,1.3,2.3c1,1.8,1.7,2.9,2.5,4l0.2,0.3
			c1.9,2.5,4.1,3.9,6.6,4.1c0.2,0,0.4,0,0.6,0c2.3,0,4.8-1,7.4-2.9c6.5-4.9,9.6-14.1,9.8-15.5c0.2-0.5,1.3-4,1.4-8.2h-1.4
			C80,4.2,78.8,7.7,78.8,7.8z"/>
		<path class="st5" d="M52.9,2.4c-0.1,0.4,0.2,0.7,0.5,0.8h0.1c0.3,0,0.6-0.2,0.7-0.6L54.7,0h-1.4L52.9,2.4z"/>
		<path class="st5" d="M58.7,6.4c-0.1,0.4,0.2,0.7,0.5,0.8h0.1c0.3,0,0.6-0.2,0.7-0.6L61.2,0h-1.4L58.7,6.4z"/>
		<path class="st5" d="M63.7,12.5c-0.1,0.4,0.2,0.7,0.5,0.8h0.1c0.3,0,0.6-0.2,0.7-0.6L67.4,0H66L63.7,12.5z"/>
		<path class="st5" d="M76,7.1L76,7.1c-0.1,0.8-2.7,9.2-7.9,13.1c-2.1,1.5-3.8,2.1-5.4,1.8c-1.5-0.3-2.9-1.4-4.4-3.4L58,18.4
			c-0.6-0.9-1.2-1.8-2.1-3.3c-0.3-0.5-0.7-1.2-1.1-1.9c-0.3-0.5-0.6-1.1-1-1.7c0,0,0,0,0-0.1c-0.4-0.6-4.2-5.5-7.6-7.3
			C44,3,42.3,2.9,40.6,2.8c-1.4-0.1-2.7-0.2-4.5-0.7C34.8,1.5,34,0.7,33.3,0h-1.7c0.7,1.1,1.9,2.3,3.9,3.3h0.1
			c2,0.6,3.5,0.7,4.9,0.8c1.7,0.1,3.1,0.2,5,1.1c3.3,1.6,7,6.7,7.1,6.8c0.3,0.6,0.7,1.2,1,1.7c0.4,0.8,0.8,1.4,1.1,2
			c0.9,1.5,1.5,2.5,2.2,3.4l0.2,0.3c1.7,2.3,3.4,3.6,5.3,3.9c0.4,0.1,0.7,0.1,1.1,0.1c1.7,0,3.5-0.7,5.4-2.2
			c5.5-4.1,8.2-12.7,8.4-13.9C77.5,6.7,78.1,3.6,78,0h-1.4C76.8,3.5,76.2,6.6,76,7.1z"/>
		<path class="st5" d="M79.9,392.2c-2.7-5.4-8.6-11-12.9-13.3c-2.5-1.4-4.8-2.4-7.1-2.9c-8.2-2-17.4,0-25.2,5.5l-0.3,0.2
			c-8.7,6.7-7.6,14.3-7.5,14.9c0,0.3,0.2,1.7,0.9,3.3h1.5c-0.9-1.8-1.1-3.3-1.1-3.5v-0.1c0-0.1-1.3-7.3,7-13.6l0.3-0.2
			c7.5-5.3,16.3-7.2,24.1-5.3c2.2,0.6,4.4,1.5,6.8,2.8c4,2.2,9.7,7.5,12.3,12.7c1.1,2.3,1.4,4.8,1.4,7.2h1.4
			C81.5,397.5,81.1,394.7,79.9,392.2z"/>
		<path class="st5" d="M56.7,385.9c-0.4-0.1-0.7,0.2-0.8,0.5L53.3,400h1.4l2.5-13.3C57.3,386.4,57,386,56.7,385.9z"/>
		<path class="st5" d="M63,386.4c-0.4-0.1-0.7,0.2-0.8,0.5l-2.4,13h1.4l2.3-12.8C63.6,386.9,63.4,386.5,63,386.4z"/>
		<path class="st5" d="M68.1,392.5c-0.4-0.1-0.7,0.2-0.8,0.5l-1.3,7h1.4l1.2-6.7C68.7,392.9,68.5,392.6,68.1,392.5z"/>
		<path class="st5" d="M64.9,381.5c-1.9-1.1-4.8-2.2-6.9-2.7c-6.6-1.8-14.3,0-21.2,4.8l-0.3,0.2c-7.1,5.5-6.3,11.8-6.2,12.7
			c0,0.4,0.1,1.9,1.2,3.6h1.7c-1.6-1.8-1.5-3.5-1.5-3.6s0-0.1,0-0.2c0-0.3-1.1-6.2,5.6-11.4l0.2-0.2c6.5-4.6,13.8-6.3,20-4.6
			c2,0.5,4.8,1.6,6.6,2.6c3,1.7,8.6,6.1,11,10.8c1,2,1.4,4.3,1.4,6.5H78c-0.1-2.4-0.5-5-1.6-7.1C73.9,387.8,68,383.2,64.9,381.5z"/>
		<path class="st5" d="M41,389.3c-0.9,0.7-1.6,1.7-1.7,2.9c-0.2,1.2,0.1,2.3,0.8,3.3c0.9,1.2,2.2,1.8,3.5,1.8c0.9,0,1.8-0.3,2.6-0.9
			c1.9-1.4,2.3-4.2,0.9-6.1C45.7,388.3,43,387.9,41,389.3z M45.4,395.3c-1.3,1-3.2,0.7-4.2-0.6c-0.5-0.6-0.7-1.4-0.6-2.2
			c0.1-0.8,0.5-1.5,1.2-2c1.3-1,3.2-0.7,4.2,0.6C47.1,392.4,46.8,394.3,45.4,395.3z"/>
	</g>
	<polyline class="st4" points="229.1,19.8 224.9,16.7 221.8,21 217.5,17.9 214.4,22.1 210.1,19 207,23.3 	"/>
	<g>
		<path class="st6" d="M391.7,48.5c-1-0.5-2.1-0.6-3.4-0.2c0.6,1.2,1.3,2,2.3,2.4c1.2,0.5,2.4,0.3,3.2,0.1
			C393.5,50.1,392.9,49,391.7,48.5z"/>
		<path class="st6" d="M391.9,39.9c-0.3-1-1.1-1.8-2.3-2.5c-0.4,1.3-0.4,2.4,0,3.4c0.5,1.2,1.5,1.9,2.1,2.2
			C392,42.4,392.3,41.1,391.9,39.9z"/>
		<path class="st6" d="M397.5,48.1c0.5-0.9,0.5-2.1,0.2-3.3c-1.2,0.6-2,1.3-2.4,2.3c-0.3,0.7-0.3,1.5-0.3,2.1
			c0.1,0.3,0.3,0.6,0.4,0.9C396.1,49.8,397,49.2,397.5,48.1z"/>
		<path class="st6" d="M396.1,57.3c-1-0.4-2.2-0.3-3.4,0.2c0.7,1.1,1.6,1.8,2.6,2.1c1.2,0.3,2.5,0,3.1-0.3
			C398.1,58.7,397.3,57.7,396.1,57.3z"/>
		<path class="st5" d="M6,52.5L6,52.5L6,52.5z"/>
		<path class="st5" d="M5.9,50c-0.3,1-0.2,1.8-0.2,1.9c0,0.2,0.2,0.5,0.4,0.6l0,0C5.9,51.6,5.9,50.8,5.9,50z"/>
		<path class="st5" d="M7.5,62.1c-0.1,0-0.2,0-0.2,0c-0.1,0-0.2,0-0.2,0c0.5,3.3,1.1,7,2,10.9c0.1,0.3,0.4,0.5,0.7,0.5
			c0.1,0,0.1,0,0.2,0c0.4-0.1,0.6-0.4,0.5-0.8c-0.9-3.8-1.5-7.4-2-10.6C7.9,62.1,7.5,62.1,7.5,62.1L7.5,62.1z"/>
		<path class="st5" d="M7.1,58.3c0.1-0.4,0.3-0.8,0.6-1.2c-0.2-1.6-0.3-3.2-0.4-4.5c-0.3,0-0.5,0-0.7,0s-0.4,0-0.4,0
			c-0.1,0-0.2,0-0.3-0.1C6,54,6.1,55.6,6.3,57.3C6.7,57.6,6.9,57.9,7.1,58.3z"/>
		<path class="st5" d="M7,51.2c0.1,0,0.2,0,0.3,0c0-0.3,0-0.7,0-1C7.1,50.6,7.1,50.9,7,51.2z"/>
		<path class="st5" d="M8.2,60.7c0-0.1,0-0.3-0.1-0.4C8.1,60.4,8.1,60.6,8.2,60.7C8.1,60.7,8.1,60.7,8.2,60.7z"/>
		<path class="st5" d="M7.1,47.5c0-1.5,0-2.6,0-3c-0.1,0.1-0.2,0.2-0.2,0.2c-0.1,0.1-0.3,0.2-0.4,0.2c-0.2,0-0.3-0.1-0.5-0.2
			c0,0-0.1-0.1-0.2-0.2c0,0.5,0,1.6,0,3.2c0.2,0.3,0.4,0.7,0.6,1C6.6,48.3,6.8,47.9,7.1,47.5z"/>
		<path class="st5" d="M6,44.7c0.1,0.1,0.3,0.2,0.5,0.2s0.3-0.1,0.4-0.2c0,0,0.1-0.1,0.2-0.2c0-0.2,0-0.3,0-0.3
			c0-0.4-0.3-0.7-0.6-0.7c-0.4,0-0.7,0.3-0.7,0.6c0,0,0,0.1,0,0.3C5.9,44.6,6,44.7,6,44.7z"/>
		<path class="st5" d="M6.7,52.6c0.2,0,0.4,0,0.7,0c0-0.5-0.1-0.9-0.1-1.4c-0.1,0-0.2,0-0.3,0c0-0.3,0.1-0.6,0.2-1
			c0-1-0.1-1.9-0.1-2.6c-0.3,0.4-0.6,0.7-0.8,1.1c0.7,1.6,0.5,3.1,0.5,3.2c0,0.3-0.3,0.6-0.6,0.6H6.1H6l0,0c0.1,0,0.2,0.1,0.3,0.1
			C6.3,52.6,6.4,52.6,6.7,52.6z"/>
		<path class="st5" d="M6.4,48.7c-0.2-0.3-0.3-0.7-0.6-1c0,0.7,0,1.5,0.1,2.4C6,49.6,6.1,49.1,6.4,48.7z"/>
		<path class="st5" d="M6,52.5L6,52.5c0.2,0,0.2,0,0.2,0c0.3,0,0.6-0.3,0.6-0.6c0-0.1,0.2-1.6-0.5-3.2C6.1,49.1,6,49.6,5.9,50
			C5.9,50.8,5.9,51.6,6,52.5z M6.2,51.8L6.2,51.8L6.2,51.8z"/>
		<path class="st5" d="M8.1,60.7c0-0.1,0-0.3,0-0.4c-0.1-1.1-0.3-2.2-0.4-3.2c-0.3,0.4-0.5,0.8-0.6,1.2C8,59.8,8,61.3,8,61.4
			c0,0.3-0.2,0.6-0.6,0.7c0,0-0.1,0-0.3,0c0.1,0,0.2,0,0.2,0l0,0c0,0,0.4,0,0.8-0.1C8.3,61.6,8.2,61.1,8.1,60.7L8.1,60.7z"/>
		<path class="st5" d="M7,61.9c0,0.1,0,0.2,0,0.2c0.1,0,0.2,0,0.2,0C7.1,62,7,62,7,61.9z"/>
		<path class="st5" d="M7.1,58.3c-0.2-0.3-0.4-0.7-0.7-1c0.1,1,0.2,2,0.4,3C6.8,59.7,6.9,59,7.1,58.3z"/>
		<path class="st5" d="M6.8,61.6c0,0.1,0.1,0.2,0.1,0.3c-0.1-0.5-0.1-1-0.2-1.5C6.7,61,6.8,61.5,6.8,61.6z"/>
		<path class="st5" d="M7,61.9C7,62,7.1,62,7.2,62.1c0.2,0,0.3,0,0.3,0c0.3-0.1,0.6-0.3,0.6-0.7c0-0.1,0-1.6-0.9-3.1
			c-0.3,0.7-0.4,1.5-0.4,2.1C6.8,60.8,6.9,61.3,7,61.9z"/>
		<path class="st5" d="M391.9,43.3c0.4-0.1,0.7,0.1,0.9,0.4c0,0,0,0.1,0.1,0.3c0.3-0.7,1-2.6,0.4-4.5c-0.5-1.6-1.7-2.8-3.6-3.6
			c-0.2-0.1-0.4-0.1-0.5,0c-0.2,0.1-0.3,0.2-0.4,0.4c-0.8,1.9-0.9,3.7-0.3,5.2c0.8,1.8,2.5,2.8,3.2,3.1c-0.1-0.2-0.1-0.3-0.1-0.3
			C391.3,43.8,391.5,43.5,391.9,43.3z M389.6,40.9c-0.4-1-0.4-2.1,0-3.4c1.2,0.7,1.9,1.5,2.3,2.5c0.4,1.2,0.1,2.4-0.1,3.1
			C391.1,42.7,390.1,42,389.6,40.9z"/>
		<path class="st5" d="M395.3,47.1c0.4-1,1.2-1.7,2.4-2.3c0.4,1.3,0.3,2.4-0.2,3.3c-0.5,1-1.4,1.7-2.1,2c0.2,0.4,0.4,0.8,0.6,1.2
			c0.9-0.4,2-1.3,2.7-2.6c0.7-1.5,0.7-3.2,0-5.1c-0.1-0.2-0.2-0.3-0.4-0.4c-0.2-0.1-0.4-0.1-0.5,0c-1.9,0.7-3.2,1.9-3.8,3.4
			c0,0.1-0.1,0.1-0.1,0.2c0.3,0.7,0.7,1.5,1.1,2.4C395,48.6,395,47.9,395.3,47.1z"/>
		<path class="st5" d="M394.2,51.5c0-0.1-0.4-0.8-0.5-1.8c-0.4-0.8-0.7-1.5-1-2.2c-0.1-0.1-0.2-0.1-0.3-0.2
			c-1.5-0.8-3.2-0.8-5.2-0.1c-0.2,0.1-0.3,0.2-0.4,0.4s-0.1,0.4,0,0.5c0.7,1.9,1.9,3.2,3.4,3.8c0.7,0.3,1.4,0.4,2.1,0.4
			c1.1,0,2-0.3,2.5-0.5l0,0C394.5,51.8,394.3,51.7,394.2,51.5z M390.7,50.6c-1-0.4-1.7-1.2-2.3-2.4c1.3-0.4,2.5-0.3,3.4,0.2
			c1.1,0.6,1.8,1.6,2.1,2.3C393.1,50.9,391.8,51.1,390.7,50.6z"/>
		<path class="st5" d="M394.2,51.5c0.1,0.2,0.3,0.4,0.5,0.4c-0.4-0.8-0.7-1.5-1-2.2C393.8,50.7,394.2,51.4,394.2,51.5z"/>
		<path class="st5" d="M399.7,60.1c0,0-0.2,0.1-0.5,0.2c0.2,0.4,0.5,0.8,0.7,1.2c0-0.6,0-1.2,0-1.8C399.9,60,399.9,60.1,399.7,60.1z
			"/>
		<path class="st5" d="M400,59.3c0-0.1,0-0.2,0-0.4c-1.6-2.8-2.9-5.4-4-7.5c-0.6,0.3-1,0.4-1,0.4c-0.1,0-0.1,0-0.2,0c0,0,0,0-0.1,0
			l0,0c0.6,1.3,1.4,2.8,2.2,4.3C399,57.1,399.9,59,400,59.3z"/>
		<path class="st5" d="M395.2,50.3c0.1,0,0.1-0.1,0.2-0.1c-0.1-0.3-0.3-0.6-0.4-0.9C395.1,49.7,395.1,50,395.2,50.3z"/>
		<path class="st5" d="M393.9,46.8c-0.6-1.4-1-2.4-1.1-2.8c-0.1,0.2-0.1,0.3-0.1,0.3c-0.1,0.2-0.4,0.4-0.6,0.4c-0.1,0-0.2,0-0.2,0
			s-0.1-0.1-0.3-0.1c0.2,0.5,0.6,1.5,1.2,3c0.3,0.2,0.7,0.5,0.9,0.7C393.7,47.7,393.8,47.3,393.9,46.8z"/>
		<path class="st5" d="M5.8,70c0.1,0,0.3,0,0.4-0.1c0.3-0.2,0.4-0.6,0.2-0.9C3.9,65.4,1.8,62,0,58.9c0,0.1,0,0.2,0,0.4l0,0
			c0.1,0.2,0.1,0.4,0,0.5c0,0.6,0,1.2,0,1.8c1.5,2.5,3.3,5.3,5.2,8.1C5.4,69.9,5.6,70,5.8,70z"/>
		<path class="st5" d="M392.1,44.7c0.2,0,0.5-0.1,0.6-0.4c0,0,0.1-0.1,0.1-0.3c-0.1-0.2-0.1-0.3-0.1-0.3c-0.1-0.4-0.5-0.5-0.9-0.4
			s-0.5,0.5-0.4,0.9c0,0,0,0.1,0.1,0.3c0.2,0.1,0.3,0.1,0.3,0.1C391.9,44.7,392,44.7,392.1,44.7z"/>
		<path class="st5" d="M395.4,50.9c0.1,0.3-0.1,0.7-0.4,0.8c0,0-0.1,0-0.2,0.1c0,0,0,0,0.1,0s0.1,0,0.2,0c0,0,0.5-0.1,1-0.4
			c-0.2-0.4-0.4-0.8-0.6-1.2c-0.1,0-0.2,0.1-0.2,0.1c-0.1-0.3-0.2-0.6-0.2-1c-0.4-0.9-0.8-1.7-1.1-2.4c-0.2,0.5-0.3,0.9-0.3,1.3
			C394.9,49.4,395.3,50.9,395.4,50.9z"/>
		<path class="st5" d="M393.7,48.2c-0.3-0.3-0.6-0.5-0.9-0.7c0.3,0.6,0.6,1.4,1,2.2C393.6,49.2,393.6,48.7,393.7,48.2z"/>
		<path class="st5" d="M394.7,51.8v0.1V51.8z"/>
		<path class="st5" d="M395.4,50.9c0-0.1-0.5-1.6-1.7-2.8c0,0.5,0,1,0,1.4c0.3,0.7,0.7,1.4,1,2.2l0,0c0.1-0.1,0.2-0.1,0.2-0.1
			C395.3,51.6,395.4,51.3,395.4,50.9z"/>
		<path class="st5" d="M396.6,56c-1.6-0.6-3.3-0.3-5.2,0.6c-0.2,0.1-0.3,0.2-0.3,0.4c-0.1,0.2,0,0.4,0.1,0.5c1,1.8,2.3,2.9,3.8,3.4
			c0.5,0.1,0.9,0.2,1.4,0.2c1.3,0,2.4-0.4,2.9-0.7c-0.9-1.5-1.6-2.9-2.4-4.2C396.8,56.1,396.7,56.1,396.6,56z M395.3,59.6
			c-1-0.3-1.9-1-2.6-2.1c1.3-0.5,2.4-0.6,3.4-0.2c1.2,0.4,1.9,1.4,2.3,2C397.8,59.6,396.6,59.9,395.3,59.6z"/>
		<path class="st5" d="M400,59.8c0-0.2,0-0.4,0-0.6c-0.1-0.2-1-2.2-3.1-3.1c0.7,1.3,1.5,2.7,2.4,4.2c0.3-0.1,0.4-0.2,0.5-0.2
			C399.9,60.1,399.9,60,400,59.8z"/>
		<path class="st5" d="M0,59.3L0,59.3c0,0.2,0,0.3,0,0.5C0.1,59.7,0.1,59.5,0,59.3z"/>
		<path class="st5" d="M6.5,43.5c0.4,0,0.7,0.3,0.6,0.7c0,0,0,0.1,0,0.3c0.5-0.5,1.9-2,2-4.1c0.1-1.6-0.6-3.2-2-4.7
			c-0.1-0.1-0.3-0.2-0.5-0.2s-0.4,0.1-0.5,0.2C4.7,37.2,4,38.8,4,40.4c0.1,2,1.3,3.5,1.8,4c0-0.2,0-0.3,0-0.3
			C5.8,43.8,6.2,43.5,6.5,43.5z M6.7,37.2c0.8,1,1.2,2.1,1.2,3.2c-0.1,1.3-0.8,2.3-1.3,2.9c-0.5-0.6-1.1-1.6-1.1-2.8
			C5.4,39.3,5.8,38.2,6.7,37.2z"/>
		<path class="st5" d="M8.3,48.3c0.7-0.7,1.8-1.2,3.1-1.2c-0.1,1.3-0.6,2.3-1.4,3c-0.9,0.8-1.9,1-2.7,1.1c0,0.4,0,0.9,0.1,1.4
			c1-0.1,2.4-0.4,3.5-1.4c1.2-1.1,1.9-2.7,1.9-4.7c0-0.2-0.1-0.4-0.2-0.5c-0.1-0.1-0.3-0.2-0.5-0.2c-2.1-0.1-3.7,0.5-4.8,1.7
			c-0.1,0.1-0.1,0.1-0.2,0.2c0,0.8,0,1.6,0.1,2.6C7.4,49.6,7.7,48.9,8.3,48.3z"/>
		<path class="st5" d="M5.6,51.9c0-0.1,0-0.9,0.2-1.9c0-0.9-0.1-1.7-0.1-2.4c-0.1-0.1-0.2-0.2-0.2-0.3c-1.1-1.3-2.7-1.9-4.8-2
			c-0.2,0-0.4,0.1-0.5,0.2S0,45.8,0,46c0,2,0.6,3.7,1.7,4.8c1.5,1.5,3.5,1.7,4.3,1.7C5.8,52.4,5.6,52.2,5.6,51.9z M2.7,49.8
			C2,49.1,1.5,48,1.5,46.7c1.4,0.2,2.4,0.7,3.1,1.5c0.8,0.9,1,2.1,1.1,2.9C4.8,51,3.6,50.7,2.7,49.8z"/>
		<path class="st5" d="M12.9,54.7c-0.1-0.1-0.3-0.2-0.5-0.1c-2,0.2-3.6,1-4.5,2.3C7.8,57,7.8,57,7.8,57.1c0.1,1,0.2,2.1,0.4,3.2
			c0-0.7,0.2-1.8,0.9-2.6c0.6-0.8,1.6-1.4,2.9-1.6c0,1.3-0.3,2.4-1,3.2c-0.8,0.9-2,1.3-2.7,1.5c0.1,0.4,0.1,0.9,0.2,1.4
			c0.9-0.2,2.4-0.7,3.5-1.9s1.5-2.9,1.3-4.9C13.2,55,13.1,54.8,12.9,54.7z"/>
		<path class="st5" d="M6.8,61.6c0,0-0.1-0.5-0.1-1.3c-0.1-1-0.3-2.1-0.4-3C6.2,57.2,6.1,57.1,6,57c-1.2-1.1-2.9-1.6-5-1.4
			c-0.2,0-0.3,0.1-0.5,0.2c-0.1,0.1-0.2,0.3-0.2,0.5c0.2,2,1,3.6,2.3,4.5c1.3,1,2.8,1.1,3.7,1.1c0.2,0,0.3,0,0.5,0
			C6.8,61.8,6.8,61.7,6.8,61.6C6.9,61.8,6.8,61.7,6.8,61.6z M3.6,59.9C2.8,59.3,2.2,58.3,2,57c1.3,0,2.5,0.3,3.3,1.1
			c0.9,0.8,1.3,2,1.4,2.7C5.9,60.8,4.6,60.7,3.6,59.9z"/>
	</g>
	<g>
		<path class="st6" d="M9.9,212.7c0.6-0.3,1-0.5,1.1-0.5c0.9-0.5,1.3-1,1.6-1.3c-0.4-0.1-1.1-0.1-2.1,0c-0.2,0-0.4-0.1-0.6-0.2
			c-0.1-0.2-0.2-0.4-0.2-0.6c0.2-1,0.3-1.7,0.2-2.1c-0.3,0.2-0.9,0.7-1.5,1.5c-0.1,0.2-0.3,0.3-0.6,0.3c-0.2,0-0.4-0.1-0.5-0.3
			c-0.5-0.9-1-1.4-1.3-1.6c-0.1,0.4-0.1,1.1,0,2.1l0,0c0,0,0.1,0.5,0.2,1.1c0.7,0.1,1.3,0.3,1.9,0.6C8.8,211.9,9.4,212.3,9.9,212.7z
			"/>
		<path class="st6" d="M5.7,212.3C5.7,212.3,5.6,212.3,5.7,212.3c-0.4-0.1-0.7-0.1-1-0.1c-1.8,0-3.5,0.7-4.7,1.9v8.5
			c0.3,0.2,0.6,0.3,0.9,0.5s0.4,0.6,0.3,0.9c-0.1,0.2-0.4,0.4-0.6,0.4c-0.1,0-0.2,0-0.3-0.1c-0.1,0-0.2-0.1-0.2-0.1v15.4
			c1.9-2.8,3.5-5.4,5-7.7c-0.9-0.2-2.4-0.5-4.3-1.3c-0.3-0.1-0.5-0.5-0.4-0.9c0.1-0.3,0.5-0.5,0.9-0.4c2.3,0.9,3.9,1.2,4.6,1.3
			c3.2-5.2,5-8.7,5.1-8.8c0.8-1.6,0.9-3.4,0.3-5.1c-0.4-1-0.9-1.9-1.7-2.6c-0.1,0-0.1-0.1-0.2-0.2c-0.5-0.4-1-0.8-1.6-1.1
			C7,212.6,6.3,212.4,5.7,212.3z M8.1,216c0.3-0.2,0.7-0.1,0.9,0.2c0.1,0.1,1.7,2.7,0.1,6c-0.1,0.2-0.4,0.4-0.6,0.4
			c-0.1,0-0.2,0-0.3-0.1c-0.3-0.2-0.5-0.6-0.3-0.9c1.3-2.7,0-4.6,0-4.7C7.7,216.6,7.8,216.2,8.1,216z"/>
		<path class="st5" d="M4.7,212.2c0.3,0,0.6,0,0.9,0.1c-0.2,0-0.5-0.2-0.5-0.5c-0.1-0.3-0.2-0.7-0.2-1c-1.7,0-3.4,0.5-4.8,1.5v1.8
			C1.3,212.9,3,212.2,4.7,212.2z"/>
		<path class="st5" d="M5.9,212.3c-0.1,0-0.2,0-0.2,0c0.7,0.1,1.3,0.3,1.9,0.6s1.1,0.7,1.6,1.1l-0.1-0.1c-0.1-0.3,0-0.7,0.4-0.9
			c0.1-0.1,0.3-0.1,0.4-0.2c-0.5-0.4-1.1-0.8-1.7-1.1s-1.3-0.5-1.9-0.6c0,0.1,0.1,0.3,0.1,0.4C6.5,211.8,6.3,212.1,5.9,212.3z"/>
		<path class="st5" d="M6.1,232L6.1,232c0,0-0.5,0-1.1-0.1c-1.4,2.3-3.1,4.9-5,7.7v2.4c2.6-3.8,4.8-7.3,6.7-10.3
			C6.6,231.9,6.4,232,6.1,232z"/>
		<path class="st5" d="M9.8,214.2c-0.1,0-0.3,0-0.4-0.1c0.7,0.7,1.3,1.6,1.7,2.6c0.6,1.7,0.5,3.5-0.3,5.1c0,0.1-1.9,3.6-5.1,8.8
			c0.2,0,0.4,0,0.4,0c0.4,0,0.7,0.3,0.7,0.7c0,0.1,0,0.2-0.1,0.2c3.3-5.4,5.2-9.1,5.3-9.2c0.9-2,1.1-4.2,0.3-6.2
			c-0.3-0.9-0.8-1.8-1.4-2.5c-0.3,0.1-0.6,0.3-0.9,0.4C10,214.2,9.9,214.2,9.8,214.2z"/>
		<path class="st5" d="M390.7,252.5c-0.5,0.6-1.4,0.8-2.2,0.5l0,0c-0.7-0.4-1.2-1.2-1-2c1.5-6.7,3.4-13.1,5.2-18.6
			c-0.5-0.5-0.8-0.7-0.8-0.8c-0.2-0.3-0.2-0.7,0.1-1c0.3-0.2,0.7-0.2,1,0.1c0,0,0.1,0.1,0.2,0.2c1.2-3.6,2.4-6.8,3.3-9.3
			c-0.5-0.5-0.8-0.8-0.8-0.8c-0.2-0.2-0.2-0.5-0.1-0.7c-2.4,6.2-6.5,17.8-9.4,30.5c-0.3,1.4,0.5,2.8,1.8,3.5
			c0.4,0.2,0.9,0.3,1.4,0.3c0.9,0,1.8-0.4,2.5-1.1c3-3.8,5.8-7.7,8.3-11.3v-2.4C397.3,243.7,394.1,248.1,390.7,252.5z"/>
		<path class="st5" d="M397.4,215.5c0,0.1-0.8,1.8-1.9,4.7c0-0.1,0.1-0.1,0.2-0.2c0.3-0.2,0.7-0.2,1,0.1c0,0,0.1,0.1,0.3,0.3
			c1-2.7,1.7-4.2,1.7-4.3c0.4-0.7,0.8-1.4,1.4-1.9v-1.8C398.9,213.1,398,214.2,397.4,215.5z"/>
		<path class="st5" d="M9.4,214.1c-0.1-0.1-0.1-0.1-0.2-0.2C9.3,214,9.4,214.1,9.4,214.1z"/>
		<path class="st5" d="M5.7,212.3C5.7,212.3,5.6,212.3,5.7,212.3C5.6,212.3,5.7,212.3,5.7,212.3z"/>
		<path class="st5" d="M14.3,210.7c0-0.2,0-0.5-0.2-0.6c-0.1-0.1-0.9-0.7-2.8-0.6c0.3-1.9-0.2-2.7-0.3-2.8c-0.1-0.2-0.3-0.3-0.6-0.3
			c-0.2,0-1.1,0.1-2.4,1.6c-1.2-1.6-2-1.8-2.2-1.8c-0.2,0-0.5,0-0.6,0.2s-0.8,1.1-0.5,3.7c0,0,0.1,0.4,0.2,0.8c0.5,0,1,0.1,1.4,0.2
			c-0.2-0.6-0.2-1.1-0.2-1.1l0,0c-0.1-1-0.1-1.7,0-2.1c0.3,0.3,0.8,0.8,1.3,1.6c0.1,0.2,0.3,0.3,0.5,0.3s0.4-0.1,0.6-0.3
			c0.6-0.8,1.2-1.3,1.5-1.5c0,0.4,0,1.1-0.2,2.1c-0.1,0.2,0,0.4,0.2,0.6c0.1,0.2,0.4,0.3,0.6,0.2c1-0.1,1.7-0.1,2.1,0
			c-0.3,0.3-0.8,0.8-1.6,1.3c0,0-0.5,0.3-1.1,0.5c0.4,0.3,0.7,0.7,1,1c0.4-0.2,0.7-0.4,0.7-0.4C13.9,212,14.2,210.9,14.3,210.7z"/>
		<path class="st5" d="M9.9,212.7c-0.1,0.1-0.3,0.1-0.4,0.2c-0.3,0.1-0.5,0.5-0.4,0.9c0,0.1,0.1,0.1,0.1,0.1
			c0.1,0.1,0.1,0.1,0.2,0.2c0.1,0.1,0.2,0.1,0.4,0.1c0.1,0,0.2,0,0.3,0c0.3-0.1,0.6-0.3,0.9-0.4C10.6,213.4,10.3,213.1,9.9,212.7z"
			/>
		<path class="st5" d="M5.6,212.3C5.6,212.3,5.7,212.3,5.6,212.3c0.2,0,0.2,0,0.3,0c0.4-0.1,0.6-0.5,0.5-0.8c0-0.1-0.1-0.3-0.1-0.4
			c-0.5-0.1-1-0.1-1.4-0.2c0.1,0.3,0.1,0.6,0.2,1C5.2,212.1,5.4,212.2,5.6,212.3z"/>
		<path class="st5" d="M0.2,224.3c0.1,0.1,0.2,0.1,0.3,0.1c0.2,0,0.5-0.1,0.6-0.4c0.2-0.3,0.1-0.7-0.3-0.9c-0.3-0.2-0.6-0.3-0.9-0.5
			v1.6C0.1,224.2,0.2,224.3,0.2,224.3z"/>
		<path class="st5" d="M395.5,220.2C395.5,220.2,395.5,220.1,395.5,220.2C395.5,220.1,395.5,220.2,395.5,220.2z"/>
		<path class="st5" d="M400,222.6c-1.7-1-2.7-1.9-3.1-2.3c-0.2,0.4-0.3,0.9-0.5,1.4c0.7,0.6,1.9,1.5,3.6,2.5V222.6z"/>
		<path class="st5" d="M396.6,220c-0.2-0.3-0.7-0.3-1-0.1c-0.1,0.1-0.1,0.1-0.2,0.2l0,0c-0.1,0.2-0.1,0.5,0.1,0.7
			c0,0,0.3,0.3,0.8,0.8c0.2-0.5,0.4-0.9,0.5-1.4C396.7,220.1,396.6,220,396.6,220z"/>
		<path class="st5" d="M6.7,231.6C6.7,231.6,6.7,231.7,6.7,231.6C6.7,231.7,6.7,231.6,6.7,231.6z"/>
		<path class="st5" d="M0.3,229.7c-0.1,0.3,0,0.7,0.4,0.9c1.9,0.8,3.4,1.1,4.3,1.3c0.3-0.4,0.5-0.9,0.8-1.3
			c-0.7-0.1-2.3-0.4-4.6-1.3C0.8,229.2,0.4,229.4,0.3,229.7z"/>
		<path class="st5" d="M6.1,230.7c0,0-0.1,0-0.4,0c-0.2,0.4-0.5,0.8-0.8,1.3c0.7,0.1,1.1,0.1,1.1,0.1l0,0c0.2,0,0.4-0.1,0.6-0.3
			c0,0,0-0.1,0.1-0.1c0-0.1,0.1-0.2,0.1-0.2C6.8,231,6.5,230.7,6.1,230.7z"/>
		<path class="st5" d="M396.3,234.8c0.2,0,0.5-0.1,0.6-0.3c0.2-0.3,0.1-0.7-0.2-0.9c-2-1.2-3.1-2.2-3.6-2.6
			c-0.2,0.5-0.3,0.9-0.5,1.4c0.6,0.6,1.7,1.4,3.3,2.4C396.1,234.8,396.2,234.8,396.3,234.8z"/>
		<path class="st5" d="M392.9,230.7c-0.2-0.3-0.7-0.3-1-0.1s-0.3,0.7-0.1,1c0,0,0.3,0.3,0.8,0.8c0.2-0.5,0.3-1,0.5-1.4
			C392.9,230.8,392.9,230.7,392.9,230.7z"/>
		<path class="st5" d="M7.9,221.6c-0.2,0.3,0,0.7,0.3,0.9c0.1,0,0.2,0.1,0.3,0.1c0.3,0,0.5-0.1,0.6-0.4c1.6-3.4,0-5.9-0.1-6
			c-0.2-0.3-0.6-0.4-0.9-0.2c-0.3,0.2-0.4,0.6-0.2,0.9C8,217,9.2,219,7.9,221.6z"/>
	</g>
	<g>
		<path class="st6" d="M360.1,399.1c0.3-0.3,0.6-0.7,0.7-1.1c0.4-1.4-0.4-3-1.8-3.4c-0.4-0.1-0.9-0.2-1.3-0.1l-1,0.2l0.1-1
			c0.2-4-2.3-7.7-6.2-8.8c-3.9-1.2-8.1,0.5-10.1,4l-0.6,1l-0.7-0.9c-0.3-0.4-0.8-0.7-1.3-0.9c-1.4-0.4-3,0.4-3.4,1.8
			c-0.2,0.6-0.2,1.1,0,1.7l0.3,0.9l-1,0.1c-2.3,0.3-4.3,2-5,4.2c-0.3,1.1-0.3,2.1-0.1,3.2h9.3c1.5-3.5,5.5-5.3,9.2-4.2
			c0.4,0.1,0.6,0.6,0.5,1s-0.6,0.6-1,0.5c-2.7-0.8-5.6,0.4-7,2.7h12.1c1.3-1.3,3-2,4.9-2.1c0.4,0,0.8,0.3,0.8,0.7s-0.3,0.8-0.7,0.8
			c-0.8,0-1.5,0.2-2.2,0.6h5.2l-0.4-0.2L360.1,399.1z M348.8,387.7c-0.1,0.4-0.6,0.6-1,0.5c-1.4-0.4-3,0.4-3.4,1.8
			c-0.1,0.4-0.6,0.6-1,0.5s-0.6-0.6-0.5-1c0.7-2.3,3.1-3.5,5.4-2.9C348.7,386.8,348.9,387.3,348.8,387.7z"/>
		<path class="st5" d="M346.7,397.3c0.4,0.1,0.9-0.1,1-0.5s-0.1-0.9-0.5-1c-3.7-1.1-7.6,0.7-9.2,4.2h1.8
			C341.2,397.7,344,396.5,346.7,397.3z"/>
		<path class="st5" d="M356.8,399.4c0.4,0,0.8-0.4,0.7-0.8s-0.4-0.8-0.8-0.7c-1.8,0.1-3.6,0.9-4.9,2.1h2.7
			C355.3,399.7,356,399.5,356.8,399.4z"/>
		<path class="st5" d="M348.2,386.7c-2.3-0.7-4.7,0.6-5.4,2.9c-0.1,0.4,0.1,0.9,0.5,1s0.9-0.1,1-0.5c0.4-1.4,2-2.2,3.4-1.8
			c0.4,0.1,0.9-0.1,1-0.5C348.9,387.3,348.7,386.8,348.2,386.7z"/>
		<path class="st5" d="M328.8,396.8c0.7-2.3,2.6-3.9,5-4.2l1-0.1l-0.3-0.9c-0.2-0.5-0.2-1.1,0-1.7c0.4-1.4,2-2.2,3.4-1.8
			c0.5,0.2,1,0.5,1.3,0.9l0.7,0.9l0.6-1c2-3.6,6.2-5.2,10.1-4s6.4,4.8,6.2,8.8l-0.1,1l1-0.2c0.4-0.1,0.9-0.1,1.3,0.1
			c1.4,0.4,2.2,2,1.8,3.4c-0.1,0.4-0.4,0.8-0.7,1.1l-0.7,0.7l0.4,0.2h2.7c-0.2-0.2-0.4-0.4-0.6-0.6c0.2-0.3,0.4-0.7,0.5-1.1
			c0.7-2.3-0.6-4.7-2.9-5.4c-0.4-0.1-0.8-0.2-1.1-0.2c-0.1-4.4-3-8.2-7.3-9.5s-8.9,0.3-11.4,3.9c-0.4-0.3-0.8-0.5-1.3-0.7
			c-2.3-0.7-4.7,0.6-5.4,2.9c-0.2,0.6-0.2,1.2-0.2,1.8c-2.6,0.6-4.7,2.6-5.4,5.2c-0.4,1.2-0.4,2.4-0.2,3.6h1.6
			C328.5,399,328.5,397.9,328.8,396.8z"/>
		<path class="st5" d="M338.2,1.8c0.4,0.1,0.9-0.1,1-0.5c0.1-0.5,0.3-0.9,0.6-1.3H338c-0.1,0.3-0.2,0.6-0.3,0.9
			C337.6,1.3,337.8,1.7,338.2,1.8z"/>
		<path class="st5" d="M351,2.4c0.1,0,0.1,0.1,0.2,0.1c0.3,0.1,0.7,0,0.9-0.3c0.6-1,1.5-1.7,2.5-2.2h-2.7c-0.4,0.4-0.8,0.8-1.1,1.3
			C350.5,1.7,350.6,2.2,351,2.4z"/>
		<path class="st5" d="M349.1,7.6l-1,2.5c0.8-0.3,1.5-0.8,2.1-1.4c0,0.1,0.1,0.1,0.1,0.2l0.3-0.6L349.1,7.6z"/>
		<path class="st5" d="M338.5,7.2l0.5-2.6l-1.5-0.3l-0.3,1.5c0.2-0.1,0.4-0.1,0.6-0.2C338,6.1,338.2,6.7,338.5,7.2z"/>
		<path class="st5" d="M339.8,12.5C339.8,12.5,339.9,12.5,339.8,12.5c0.5,0.1,0.9-0.2,1-0.6l0.4-2.1c-0.5-0.3-1-0.6-1.4-1l-0.5,2.9
			C339.2,12,339.4,12.3,339.8,12.5z"/>
		<path class="st5" d="M341.4,8.8c0.1-0.4-0.2-0.8-0.6-0.9s-0.8,0.2-0.9,0.6v0.2c0.4,0.4,0.9,0.7,1.4,1L341.4,8.8z"/>
		<path class="st5" d="M343.8,13.7L343.8,13.7c0.5,0.1,0.9,0,1-0.4l1.1-2.6c-0.6,0.1-1.1,0.1-1.7,0l-0.8,2
			C343.2,13,343.4,13.5,343.8,13.7z"/>
		<path class="st5" d="M345.9,10.6l0.1-0.2c0.2-0.4,0-0.9-0.4-1c-0.4-0.2-0.9,0-1,0.4l-0.4,0.8C344.8,10.7,345.3,10.7,345.9,10.6z"
			/>
		<path class="st5" d="M332.4,5.9c1.6,0.5,3.3,0.4,4.8-0.1l0.3-1.5l1.5,0.3l-0.5,2.6c0.4,0.6,0.8,1.1,1.3,1.5V8.5
			c0.1-0.4,0.5-0.7,0.9-0.6s0.7,0.5,0.6,0.9l-0.2,0.9c0.5,0.3,1,0.5,1.5,0.7c0.5,0.1,1,0.2,1.4,0.3l0.4-0.8c0.2-0.4,0.6-0.6,1-0.4
			c0.4,0.2,0.6,0.6,0.4,1l-0.1,0.2c0.7-0.1,1.5-0.3,2.2-0.6l1-2.5l1.4,0.6L350,8.8c0.9,1.9,2.6,3.3,4.6,4c4,1.2,8.3-1.1,9.5-5.1
			c0.8-2.8,0-5.7-2-7.7h-2.7l0.5,0.3c2.4,1.4,3.5,4.3,2.7,6.9c-1,3.2-4.4,5-7.5,4c-2-0.6-3.6-2.3-4.1-4.4l-0.4-1.7l-1,1.4
			c-1.5,2.1-4.2,3-6.7,2.2c-2.2-0.7-3.8-2.4-4.2-4.7l-0.2-1.1l-1,0.6c-1.5,0.9-3.3,1.2-5,0.7c-2.1-0.6-3.6-2.4-4.1-4.4h-1.6
			C327.6,2.7,329.6,5,332.4,5.9z"/>
		<path class="st5" d="M348.1,10l-4.9,11.5l-7-2.1l2.3-12.3c-0.3-0.5-0.6-1-0.8-1.6c-0.2,0.1-0.4,0.2-0.6,0.2l-2.6,13.9
			c-0.1,0.5,0.2,1,0.6,1.1l8,2.4c0.5,0.1,1-0.1,1.2-0.6l5.9-13.9c0-0.1-0.1-0.1-0.1-0.2C349.6,9.2,348.8,9.7,348.1,10z"/>
	</g>
	<g>
		<g>
			<path class="st2" d="M231.9,307.1c0.5,0.6,1.3,0.7,1.9,0.4c10.8-5.9,19.4-13.1,19.4-13.1c2-1.7,2.1-4.7,0.4-6.7s-4.7-2.1-6.7-0.4
				c0,0-8.1,7.8-15.2,17.8C231.4,305.8,231.4,306.6,231.9,307.1z"/>
			<path class="st4" d="M254.5,288.9c0.6,0,1.1-0.1,1.1-0.1c1.6-0.3,1.9-0.8,1.9-0.8l0,0c0,0-0.3-0.6-1.8-1c0.9-1.3,0.8-1.9,0.8-1.9
				s-0.6-0.2-1.9,0.6c-0.3-1.6-0.8-1.9-0.8-1.9l0,0c0,0-0.5,0.3-1,1.8c0,0-0.1,0.5-0.2,1.1"/>
			<path class="st1" d="M244.7,289.7c0,0,0.4,1.2,1.8,3"/>
			<path class="st1" d="M247.9,298.5c0,0-1.1-0.5-2.7-2.1"/>
			<path class="st1" d="M239.9,295c0,0,0.3,1.1,1.6,2.7"/>
		</g>
		<path class="st4" d="M253,290.4c0,0,0.3,1.7-1.3,3.2"/>
	</g>
	<g>
		<path class="st2" d="M366.2,98.2l5.5,2.9c1.4,0.7,3,0.2,3.7-1.1l4.8-9c0.7-1.4,0.2-3-1.1-3.7l-5.5-2.9"/>
		<path class="st4" d="M374.2,88.9l0.4-0.8c0.7-1.4,0.2-3-1.1-3.7l-13-6.9c-1,1.2-2.7,1.7-4.2,0.9c-1.4-0.8-2.1-2.5-1.7-4l-3.7-2
			l-6,11.4c1.4,0.7,1.9,2.5,1.2,3.8L366,98.2c1.4,0.7,3,0.2,3.7-1.1l2.7-5.1 M350.1,83.5c-0.7-0.4-1-1.3-0.6-2s1.3-1,2-0.6
			s1,1.3,0.6,2S350.8,83.9,350.1,83.5z M354.1,91c-1.1-0.6-1.5-1.9-0.9-3s1.9-1.5,3-0.9s1.5,1.9,0.9,3
			C356.5,91.1,355.1,91.5,354.1,91z M363.7,86c-1.4-0.8-2-2.6-1.3-4.1c0.8-1.4,2.6-2,4.1-1.3c1.4,0.8,2,2.6,1.3,4.1
			C367,86.1,365.1,86.7,363.7,86z M364.7,94.4c-0.9-0.5-1.3-1.6-0.8-2.5s1.6-1.3,2.5-0.8s1.3,1.6,0.8,2.5
			C366.8,94.6,365.6,94.9,364.7,94.4z"/>
	</g>
	<g>
		<path class="st4" d="M251.6,110.5c5.9,2.6,8,5.3,9.4,6.9s3.9,5.5,2.3,9.4c-1.5,3.4-4.7,5-4.7,5l0,0c0,0-3,1.5-6.5,0
			c-3.5-1.6-5.3-6-5.5-8s-0.9-5.3,1.3-11.4l1,0.7l0.6-2l1.6,0.7L251.6,110.5z"/>
		<circle class="st1" cx="252.2" cy="115.7" r="0.1"/>
		<circle class="st1" cx="254.8" cy="115.8" r="0.2"/>
		<path class="st4" d="M248.1,112.1l-3.5-7.8c0,0-3.2-0.1-3.7-1.9s0.5-4,3.2-3.4c1.5-2.5,3.8-1.7,4.8-0.2s-1.1,4-1.1,4l3.5,7.8"/>
		<circle class="st1" cx="253.5" cy="113.6" r="0.1"/>
		<path class="st1" d="M250.7,127c0,0,2,3.5,5.7,2.8"/>
	</g>
	<g>
		<path class="st2" d="M198.7,152.4l5.8,0.2c0.4,0,0.7-0.3,0.7-0.7l0.5-16.8c0,0,0-2.3-0.9-3.9c-0.9-1.7-1.5-2.3-1.4-4.2
			c0.1-1.9-1-4-1-4.6c0,0-0.1-1.1,0.2-2c0.3-0.8-0.1-1.1-0.1-1.1l-2.6-0.1l-2.6-0.1c0,0-0.5,0.3-0.2,1.1c0.4,0.9,0.1,2,0.1,2
			c0,0.6-1.2,2.6-1.2,4.6c-0.1,1.9-0.7,2.6-1.7,4.2c-1.1,1.6-1.1,3.9-1.1,3.9l-0.5,16.9c0,0.4,0.3,0.7,0.7,0.7L198.7,152.4
			L198.7,152.4z"/>
		<path class="st2" d="M201.7,136.7l-5.1-0.1c-0.5,0-0.8,0.3-0.8,0.8l-0.3,10.1c0,0.4,0.3,0.8,0.8,0.8l5.1,0.1
			c0.4,0,0.8-0.4,0.8-0.8l0.3-10.1C202.5,137.2,202.2,136.8,201.7,136.7z"/>
		<path class="st1" d="M197.9,127.4c-0.1,1.9-0.7,2.6-1.7,4.2"/>
		<path class="st1" d="M198.5,124.4c-0.1,0.3-0.3,0.6-0.3,1"/>
	</g>
	<g>
		<path class="st2" d="M323.1,122.8c0,0,3.4,1.6,6-2s1.7-7.3,1.7-7.3s-0.5-2.9-2.4-3.7c-1.9-0.8-4.3,1-4.3,1s-3.2,2-3.8,6.4
			C319.6,121.6,323.1,122.8,323.1,122.8z"/>
		<path class="st1" d="M327.2,119.5c1.4-1.9,1.4-4.1,1.4-4.1"/>
		<path class="st1" d="M324,120.5c0,0,1.8,0.8,3.1-1"/>
	</g>
	<g>
		<polyline class="st1" points="347.5,221.8 341.5,223 335.5,224.1 		"/>
		<polyline class="st1" points="350.9,239.1 344.8,240.3 338.9,241.5 		"/>
		<line class="st1" x1="338.4" y1="226" x2="338.6" y2="227.1"/>
		<line class="st1" x1="339.1" y1="229.5" x2="339.6" y2="232.1"/>
		<line class="st1" x1="335.6" y1="221.6" x2="346.4" y2="219.5"/>
		<path class="st1" d="M336.6,221.4l-0.9,1.4c-0.3,0.4-0.3,0.9-0.3,1.4l1.7,8.7l1.7,8.6c0.1,0.5,0.3,0.9,0.8,1.2l0.8,0.5
			c0.3,0.3,0.9,0.4,1.3,0.3l3.7-0.7l3.7-0.7c0.4-0.1,0.9-0.3,1.1-0.7l0.5-0.8c0.3-0.4,0.4-0.9,0.3-1.4l-1.7-8.6l-1.7-8.7
			c-0.1-0.4-0.3-0.9-0.8-1.2l-1.4-0.9"/>
	</g>
	<path class="st4" d="M102.5,245.2c0,0-0.4,0.2-1.2,0.8c-0.8,0.7-1.8,0.4-1.8,0.4s-4.9-0.8-7.1-4.2c-2.1-3.4-1.8-6.3-1.8-6.3
		s0.1-1.9,1.7-3s4.8-0.8,4.8-0.8s2.1-2.3,4-2.7s3.3,0.9,3.3,0.9s2.3,1.8,3.1,5.7c0.8,3.9-2.1,7.9-2.1,7.9s-0.5,0.8-1.5,1
		C102.9,245,102.5,245.2,102.5,245.2z"/>
	<path class="st4" d="M97,227.2c0,0-1.7,1.6,0.1,5"/>
	<path class="st4" d="M96.1,230.1c-2.3,2.3-6.2-2.1-6.2-2.1S95.6,226.8,96.1,230.1z"/>
	<path class="st4" d="M93.7,239.9c0,0-1.8-3-0.1-5.2"/>
	<polyline class="st4" points="52.4,46.6 47.2,47.5 48.1,52.7 42.9,53.6 43.8,58.8 38.7,59.7 39.6,64.9 	"/>
	<polyline class="st4" points="167.9,346.1 162.8,347.2 161.6,342.1 156.5,343.3 155.3,338.1 	"/>
	<polyline class="st4" points="371.8,282.1 368.6,277.8 364.4,281 361.2,276.8 357,279.9 353.9,275.7 349.6,278.9 	"/>
	<g>
		<path class="st2" d="M74.5,120c0,0,2.6,7.3,4.5,13.4c0.1,0.2,0.3,0.4,0.5,0.4c0.9,0.1,1.6,0.8,1.7,1.7c0.1,0.8-0.3,1.6-1,1.9
			c-0.7,0.3-1.4,0.3-1.9,0c-0.2-0.1-0.4-0.1-0.6,0c-3.3,2.1-7.8,3.4-7.8,3.4s-4.5,1.4-8.4,1.4c-0.2,0-0.4,0.1-0.5,0.3
			c-0.3,0.6-0.9,1-1.6,1.1c-0.8,0.1-1.6-0.4-1.9-1.1c-0.4-0.9-0.2-1.8,0.5-2.4c0.2-0.2,0.3-0.4,0.2-0.6c-1.7-6.1-3.5-13.6-3.5-13.6"
			/>
		<path class="st2" d="M64.5,123l10.5-3.1c0.3-0.1,0.5-0.4,0.4-0.6l-0.9-2.9c-0.1-0.2-0.4-0.3-0.7-0.2l-10.5,3.1l-10.5,3.1
			c-0.3,0.1-0.5,0.4-0.4,0.6l0.9,2.9c0.1,0.2,0.4,0.3,0.7,0.2L64.5,123z"/>
		<path class="st2" d="M71.4,116.9c-4.6-2.6-9.1-1.1-9.1-1.1s-4.6,1.2-7,5.9"/>
		<line class="st1" x1="62.4" y1="133.3" x2="64" y2="130.2"/>
		<line class="st1" x1="64" y1="130.2" x2="67.1" y2="131.9"/>
		<line class="st1" x1="67.1" y1="131.9" x2="68.8" y2="128.8"/>
		<line class="st1" x1="68.8" y1="128.8" x2="71.8" y2="130.5"/>
	</g>
	<g>
		<path class="st2" d="M156.8,308.7c0,0,4.2,0.3,5.5-4.4c1.3-4.8-1-8.3-1-8.3s-1.7-2.9-4-3s-4.2,2.7-4.2,2.7s-2.5,3.4-1.5,8.2
			C152.6,308.8,156.8,308.7,156.8,308.7z"/>
		<path class="st1" d="M159.8,303.7c0.7-2.5-0.1-4.8-0.1-4.8"/>
		<path class="st1" d="M156.9,306c0,0,2.2,0.2,2.9-2.3"/>
	</g>
	<polyline class="st4" points="194.2,307.7 199.2,305.9 197.5,301 202.5,299.3 200.8,294.3 205.8,292.6 204.1,287.6 	"/>
	<polyline class="st4" points="29.8,245 32.1,240.3 36.8,242.6 39.1,237.9 43.9,240.2 	"/>
	<g>
		<path class="st5" d="M98.8,283l0.4-0.4c0.2-0.2,0.3-0.6,0-0.9c-0.2-0.2-0.6-0.3-0.9,0l-0.4,0.4c-0.1,0.1-0.2,0.3-0.2,0.4
			c0,0.2,0,0.3,0.2,0.4C98.2,283.2,98.6,283.2,98.8,283L98.8,283z"/>
		<path class="st5" d="M90.3,304.6l24.2-22.5c0.2-0.2,0.3-0.6,0-0.9l-8.4-9c-0.1-0.1-0.3-0.2-0.4-0.2c-0.2,0-0.3,0.1-0.4,0.2
			L90,286.3c-0.1,0.1-0.2,0.3-0.2,0.4c0,0.2,0,0.3,0.2,0.4l6.5,6.9l-1.1,1.1c-0.2-0.2-0.5-0.3-0.9-0.3s-0.8,0.2-1,0.5
			c-0.6,0.7-1.1,1.2-1.3,1.4c-0.4,0.4-1,0.9-1.7,1.3c-0.7,0.5-1.3,1-1.8,1.4c-0.2,0.2-0.5,0.5-1,1.1c-0.2,0.3-0.4,0.7-0.4,1
			c0,0.5,0.1,0.9,0.5,1.3l1.6,1.7C89.7,304.8,90.1,304.8,90.3,304.6L90.3,304.6z M91.3,286.7l14.3-13.2l0.7,0.8l-6.5,6.1
			c-0.1,0.1-0.2,0.3-0.2,0.4c0,0.2,0,0.3,0.2,0.4c0.2,0.2,0.6,0.3,0.9,0l6.5-6.1l6,6.5l-14.3,13.2L91.3,286.7z M97.3,294.9l0.7,0.8
			l-1.1,1.1l-0.7-0.8L97.3,294.9z M88.7,302c-0.2-0.2-0.2-0.5,0-0.7c0.5-0.7,0.8-0.9,0.9-1c0.4-0.4,1-0.9,1.7-1.3
			c0.7-0.5,1.3-1,1.8-1.4c0.3-0.2,0.7-0.7,1.4-1.5c0-0.1,0.1-0.1,0.1-0.1s0.1,0,0.1,0.1l1.4,1.5l-6.1,5.7L88.7,302z"/>
		<path class="st5" d="M111.2,282.6c0.3-0.3,0.5-0.7,0.5-1.1s-0.1-0.8-0.4-1.1c-0.3-0.3-0.7-0.5-1.1-0.5s-0.8,0.1-1.1,0.4
			c-0.3,0.3-0.5,0.7-0.5,1.1s0.1,0.8,0.4,1.1C109.6,283.2,110.6,283.2,111.2,282.6L111.2,282.6z M109.9,281.7
			c-0.1-0.1-0.1-0.4,0-0.5s0.2-0.1,0.2-0.1c0.1,0,0.2,0,0.2,0.1c0.1,0.1,0.1,0.4,0,0.5C110.2,281.9,110,281.9,109.9,281.7
			L109.9,281.7z"/>
	</g>
	<g>
		<path class="st5" d="M303.5,358.2c0,0.2,0,0.5,0,0.7c0,0.3,0.2,0.5,0.5,0.5s0.5-0.2,0.5-0.5c0-0.2,0-0.5,0-0.7c0-0.1,0-0.1,0-0.2
			c-0.1-0.2-0.2-0.3-0.4-0.3C303.8,357.7,303.5,357.9,303.5,358.2L303.5,358.2z"/>
		<path class="st5" d="M304.6,348.7c-0.4,1-0.7,3.6-0.9,7.8c0,0.3,0.2,0.5,0.5,0.5s0.5-0.2,0.5-0.5c0.3-5,0.6-6.8,0.9-7.5
			c0.5-1.2,1.4-2.2,2.6-2.7c0.5-0.2,1.1-0.3,1.6-0.4c-0.1,0.1-0.2,0.2-0.4,0.3c-0.9,0.8-1.7,2-2.3,3.4c-0.8,2.1-2.5,10.1-3.3,14.1
			l-0.5-0.2c-0.2-0.1-0.5,0-0.6,0.3l-3.6,8.7c-0.1,0.2,0,0.5,0.3,0.6l2.7,1.1c0.1,0,0.3,0,0.4,0c0.1-0.1,0.2-0.1,0.3-0.3l3.6-8.7
			c0-0.1,0-0.3,0-0.4c-0.1-0.1-0.1-0.2-0.3-0.3l-0.1-0.1c3.4-3.6,8.7-9.5,9.6-11.5c0.6-1.4,0.6-3,0-4.5c-0.6-1.4-1.7-2.6-3.2-3.1
			c-1.4-0.6-3-0.6-4.5,0C306.3,346.1,305.1,347.3,304.6,348.7L304.6,348.7z M305.2,365.4l-3.2,7.8l-1.8-0.7l3.2-7.8L305.2,365.4z
			 M314.5,349c0.5,1.2,0.5,2.5,0,3.7s-3.2,4.5-7.3,9c2.2-3.5,5.1-8.1,5.7-9.7c0.6-1.4,0.8-2.8,0.7-4c0-0.2,0-0.3-0.1-0.5
			C313.9,348,314.2,348.5,314.5,349L314.5,349z M311.3,346.3l-4.7,11.7c-0.1,0.2,0,0.5,0.3,0.6c0.2,0.1,0.5,0,0.6-0.3l4.7-11.7
			c0.2,0.3,0.4,0.8,0.4,1.4c0.1,1.1-0.2,2.3-0.7,3.6c-0.8,2-4.9,8.5-7.1,11.9c0.8-4,2.4-11.6,3.2-13.5c0.5-1.3,1.2-2.3,2-3
			C310.5,346.6,310.9,346.4,311.3,346.3L311.3,346.3z"/>
	</g>
	<polyline class="st4" points="368.8,374 373.5,371.7 375.8,376.5 380.6,374.2 382.8,378.9 	"/>
	<polyline class="st4" points="58.2,320 53.6,317.5 51.1,322.2 46.4,319.7 43.9,324.3 39.3,321.8 36.8,326.5 	"/>
	<g>
		<path class="st3" d="M42.5,356.3c-0.2-0.3-0.6-0.6-0.6-0.6c-0.9-0.8-1.3-0.7-1.3-0.7l0,0c0,0-0.2,0.4,0.3,1.5
			c-1.2,0.1-1.5,0.5-1.5,0.5s0.2,0.5,1.3,0.9c-0.8,0.9-0.7,1.3-0.7,1.3l0,0c0,0,0.4,0.2,1.5-0.3c0,0,0.4-0.2,0.7-0.4"/>
		<path class="st2" d="M57.4,358.7c9.5-4.8,9.7-9.5,9.7-9.5s0.1-2.4-2.2-3.5s-3.8,1.2-3.8,1.2c-2.2,3.5-6.7,5.9-6.7,5.9
			s-4.6,2.1-8.8,1.7c0,0-2.7-0.3-3.2,2.3c-0.5,2.5,1.4,3.9,1.4,3.9S47.8,363.4,57.4,358.7z"/>
		<path class="st3" d="M64.5,345.4c-0.1-0.4-0.1-0.9-0.1-0.9c-0.1-1.2,0.3-1.5,0.3-1.5l0,0c0,0,0.4,0.1,1,1.2
			c0.8-0.9,1.3-0.9,1.3-0.9s0.3,0.4-0.1,1.6c1.2-0.1,1.5,0.3,1.5,0.3l0,0c0,0-0.1,0.4-1.2,1c0,0-0.7,0.3-1.1,0.5"/>
		<path class="st1" d="M50.5,358.7c1.5-0.3,3.5-0.9,5.7-1.9"/>
		<path class="st1" d="M45.6,358.8c0.5,0.1,1.2,0.2,1.9,0.2"/>
	</g>
	<polyline class="st4" points="116.3,17.5 115,22.6 109.9,21.2 108.5,26.3 103.4,25 	"/>
	<g>
		<path class="st2" d="M209.6,373.2l2.3,3.7c0.6,0.9,1.8,1.2,2.7,0.6l6-3.9c0.9-0.6,1.2-1.8,0.6-2.7l-2.3-3.7"/>
		<path class="st4" d="M217.7,370.3l0.6-0.4c0.9-0.6,1.2-1.8,0.6-2.7l-5.6-8.7c-1,0.4-2.2,0.1-2.9-0.9c-0.6-1-0.4-2.2,0.4-3
			l-1.6-2.5l-7.7,4.9c0.6,0.9,0.3,2.2-0.6,2.8l8.6,13.4c0.6,0.9,1.8,1.2,2.7,0.6l3.4-2.2 M204.8,358.6c-0.3-0.5-0.1-1.1,0.3-1.4
			s1.1-0.1,1.4,0.3c0.3,0.5,0.1,1.1-0.3,1.4C205.8,359.2,205.1,359.1,204.8,358.6z M204.7,364.6c-0.5-0.8-0.2-1.7,0.5-2.2
			s1.7-0.2,2.2,0.5c0.5,0.8,0.2,1.7-0.5,2.2C206.1,365.5,205.1,365.3,204.7,364.6z M212.3,364.9c-0.6-1-0.3-2.3,0.6-2.9
			c1-0.6,2.3-0.3,2.9,0.6c0.6,1,0.3,2.3-0.6,2.9S212.9,365.8,212.3,364.9z M210,370.4c-0.4-0.6-0.2-1.4,0.4-1.8s1.4-0.2,1.8,0.4
			c0.4,0.6,0.2,1.4-0.4,1.8C211.2,371.2,210.4,371,210,370.4z"/>
	</g>
	<polyline class="st4" points="114.4,145.9 109.3,144.7 110.5,139.6 105.3,138.4 106.5,133.3 	"/>
	<g>
		<path class="st5" d="M176.6,71.3l0.2-0.5c0.1-0.3,0-0.7-0.4-0.8c-0.3-0.1-0.7,0-0.8,0.4l-0.2,0.5c-0.1,0.2-0.1,0.3,0,0.5
			c0.1,0.1,0.2,0.3,0.3,0.3C176.1,71.8,176.5,71.7,176.6,71.3L176.6,71.3z"/>
		<path class="st5" d="M178.3,94.9l12.4-31.3c0.1-0.3,0-0.7-0.4-0.8l-11.7-4.6c-0.2-0.1-0.3-0.1-0.5,0s-0.3,0.2-0.3,0.3L170,78.2
			c-0.1,0.2-0.1,0.3,0,0.5c0.1,0.1,0.2,0.3,0.3,0.3l9,3.5l-0.6,1.5c-0.3-0.1-0.6,0-0.9,0.1c-0.4,0.2-0.6,0.5-0.7,0.9
			c-0.3,0.9-0.5,1.6-0.6,1.8c-0.2,0.5-0.6,1.2-0.9,2c-0.4,0.8-0.8,1.5-1,2.1c-0.1,0.3-0.2,0.7-0.4,1.4c-0.1,0.4-0.1,0.8,0.1,1.1
			c0.2,0.4,0.5,0.8,1,0.9l2.2,0.9C177.8,95.4,178.2,95.2,178.3,94.9L178.3,94.9z M171.4,78.1l7.4-18.5l1,0.4l-3.3,8.5
			c-0.1,0.2-0.1,0.3,0,0.5c0.1,0.1,0.2,0.3,0.3,0.3c0.3,0.1,0.7,0,0.8-0.4l3.3-8.5l8.4,3.3l-7.4,18.5L171.4,78.1z M180.5,83l1,0.4
			l-0.6,1.5l-1-0.4L180.5,83z M175.7,93.3c-0.3-0.1-0.4-0.4-0.3-0.6c0.2-0.8,0.3-1.2,0.4-1.3c0.2-0.5,0.6-1.2,0.9-2
			c0.4-0.8,0.8-1.5,1-2.1c0.1-0.3,0.3-1,0.6-2c0-0.1,0.1-0.1,0.1-0.1s0.1,0,0.2,0l1.9,0.7l-3.1,7.9L175.7,93.3z"/>
		<path class="st5" d="M187.8,65.6c0.2-0.4,0.1-0.8,0-1.2c-0.2-0.4-0.5-0.7-0.9-0.8c-0.4-0.2-0.8-0.1-1.2,0
			c-0.4,0.2-0.7,0.5-0.8,0.9c-0.2,0.4-0.1,0.8,0,1.2c0.2,0.4,0.5,0.7,0.9,0.8C186.6,66.8,187.5,66.4,187.8,65.6L187.8,65.6z
			 M186.2,65.3c-0.2-0.1-0.3-0.3-0.2-0.5c0-0.1,0.1-0.2,0.2-0.2c0.1,0,0.2,0,0.3,0c0.2,0.1,0.3,0.3,0.2,0.5S186.4,65.4,186.2,65.3
			L186.2,65.3z"/>
	</g>
	<g>
		<path class="st5" d="M300,202.9c0.1,0.2,0.3,0.4,0.4,0.6c0.2,0.2,0.5,0.2,0.7,0.1c0.2-0.2,0.2-0.5,0.1-0.7s-0.3-0.4-0.4-0.5
			c0-0.1-0.1-0.1-0.2-0.1c-0.2-0.1-0.4-0.1-0.5,0.1C299.9,202.4,299.8,202.7,300,202.9L300,202.9z"/>
		<path class="st5" d="M294.6,195.1c0.4,1.1,1.8,3.2,4.4,6.5c0.2,0.2,0.5,0.2,0.7,0.1c0.2-0.2,0.2-0.5,0.1-0.7
			c-3.1-3.9-4-5.5-4.2-6.2c-0.4-1.2-0.3-2.5,0.2-3.7c0.3-0.5,0.6-1,1-1.3c0,0.1-0.1,0.3-0.1,0.5c-0.2,1.2,0,2.6,0.5,4
			c0.7,2.1,4.7,9.2,6.7,12.7l-0.5,0.2c-0.3,0.1-0.4,0.4-0.3,0.6l3,8.9c0.1,0.3,0.4,0.4,0.6,0.3l2.8-0.9c0.1,0,0.2-0.1,0.3-0.2
			c0.1-0.1,0.1-0.2,0-0.4l-3-8.9c0-0.1-0.1-0.2-0.2-0.3s-0.2-0.1-0.4,0h-0.1c0.2-5,0.4-12.8-0.3-14.9c-0.5-1.5-1.5-2.7-2.9-3.3
			c-1.4-0.7-3-0.8-4.4-0.3c-1.5,0.5-2.7,1.5-3.3,2.9C294.2,192,294.1,193.6,294.6,195.1L294.6,195.1z M305.9,207.2l2.7,8l-1.9,0.6
			l-2.7-8L305.9,207.2z M302.2,188.9c1.2,0.6,2,1.6,2.4,2.8s0.5,5.5,0.4,11.6c-0.6-4.1-1.5-9.4-2-11c-0.5-1.4-1.2-2.7-2.1-3.5
			c-0.1-0.1-0.2-0.2-0.3-0.3C301.2,188.5,301.7,188.6,302.2,188.9L302.2,188.9z M298.1,188.9l4,11.8c0.1,0.3,0.4,0.4,0.6,0.3
			c0.3-0.1,0.4-0.4,0.3-0.6l-4-11.8c0.4,0.1,0.8,0.3,1.2,0.8c0.7,0.7,1.4,1.9,1.8,3.1c0.7,2,1.8,9.6,2.4,13.6
			c-2-3.5-5.7-10.2-6.4-12.2c-0.4-1.3-0.6-2.6-0.5-3.6C297.7,189.7,297.9,189.2,298.1,188.9L298.1,188.9z"/>
	</g>
	<polyline class="st4" points="371.6,209 373.2,204 378.2,205.5 379.8,200.5 384.8,202 	"/>
	<polyline class="st4" points="284,234.4 279.2,236.5 277,231.7 272.2,233.8 270.1,229 	"/>
	<polyline class="st4" points="349.1,50.8 346.1,46.5 341.8,49.5 338.8,45.1 334.4,48.1 331.5,43.8 327.1,46.8 	"/>
	<polyline class="st4" points="16.2,175.4 21.1,173.4 19.2,168.5 24.1,166.6 22.1,161.7 27,159.7 25.1,154.8 	"/>
</g>
</svg>
