<?xml version="1.0" encoding="utf-8"?>
<!-- Generator: Adobe Illustrator 23.0.1, SVG Export Plug-In . SVG Version: 6.00 Build 0)  -->
<svg version="1.1" id="Layer_1" xmlns="http://www.w3.org/2000/svg" xmlns:xlink="http://www.w3.org/1999/xlink" x="0px" y="0px"
	 viewBox="0 0 784.6 181.3" style="enable-background:new 0 0 784.6 181.3;" xml:space="preserve">
<style type="text/css">
	.st0{fill:#2A2A2A;}
</style>
<g>
	<path class="st0" d="M416.2,82.8c0,6.9-2.7,11.4-8.2,13.4l10.9,15.4h-11.8l-9.6-13.7h-6.7v13.7h-9.6V68.5h16.3
		c6.7,0,11.5,1.1,14.3,3.4C414.8,74.2,416.2,77.8,416.2,82.8z M404.7,87.9c1.2-1.1,1.8-2.8,1.8-5.1c0-2.3-0.6-3.9-1.8-4.8
		c-1.2-0.9-3.4-1.3-6.5-1.3H391v12.8h7C401.2,89.5,403.5,89,404.7,87.9z"/>
	<path class="st0" d="M448.4,68.6c-1.2-1.3-1.8-2.9-1.8-4.7s0.6-3.3,1.9-4.6s2.8-1.9,4.7-1.9c1.8,0,3.4,0.6,4.7,1.9s1.9,2.8,1.9,4.7
		c0,1.8-0.7,3.4-2,4.7l18.6,43h-10.2l-4-9.3h-18.1l-4,9.3h-10.2L448.4,68.6z M453.1,81.3l-5.4,12.5h10.8L453.1,81.3z M450.8,61.7
		c-0.7,0.7-1,1.4-1,2.3c0,0.9,0.3,1.6,1,2.3c0.7,0.7,1.4,1,2.3,1s1.6-0.3,2.3-1c0.7-0.7,1-1.4,1-2.3s-0.3-1.6-1-2.3s-1.4-1-2.3-1
		C452.2,60.7,451.5,61,450.8,61.7z"/>
	<path class="st0" d="M515.6,68.5h9.6v43.1h-9.6V94.7h-17.1v16.9h-9.6V68.5h9.6v18h17.1V68.5z"/>
	<path class="st0" d="M573.9,111.6l-4-9.3h-18.1l-4,9.3h-10.2l18.6-43.1h9.3l18.6,43.1H573.9z M560.9,81.3l-5.4,12.5h10.8
		L560.9,81.3z"/>
	<path class="st0" d="M626.8,68.5h9.6v43.1h-9.6l-20.5-27v27h-9.6V68.5h9l21.1,27.7V68.5z"/>
	<path class="st0" d="M687.1,74.2c4.1,3.8,6.2,9,6.2,15.7s-2,12-6,15.9s-10.1,5.9-18.3,5.9h-14.7V68.5h15.2
		C677.1,68.5,683,70.4,687.1,74.2z M680,99.8c2.4-2.2,3.5-5.4,3.5-9.7c0-4.2-1.2-7.5-3.5-9.8c-2.4-2.3-6-3.4-10.9-3.4h-5.4v26.2h6.1
		C674.3,103.1,677.7,102,680,99.8z"/>
	<path class="st0" d="M739.9,68.5v8.6h-21.4V86h19.3v8.2h-19.3v8.9h22.1v8.5h-31.7V68.5H739.9z"/>
	<path class="st0" d="M756.6,111.6V68.5h9.6V103h18.4v8.6H756.6z"/>
</g>
<g>
	<g>
		<g>
			<path class="st0" d="M279.9,78.8c-0.2,1-0.3,2-0.5,3c-0.2,1.1,0.6,2.2,1.8,2.4c1.1,0.2,2.2-0.6,2.4-1.8c0.2-1,0.3-2,0.5-3
				c0.1-0.3,0-0.6-0.1-0.9c-0.2-0.8-0.9-1.4-1.7-1.5C281.2,76.8,280.1,77.6,279.9,78.8L279.9,78.8z"/>
			<path class="st0" d="M289.1,38.5c-2.3,4.3-5,15-8,32.9c-0.2,1.1,0.6,2.2,1.7,2.4c1.1,0.2,2.2-0.6,2.4-1.7
				c3.6-21.3,6.1-28.9,7.5-31.6c2.7-4.9,7.2-8.5,12.6-10.1c2.4-0.7,4.8-1,7.2-0.8c-0.6,0.3-1.1,0.7-1.7,1.1
				c-4.2,3-8.3,7.8-11.4,13.4c-4.7,8.5-15.9,42.1-21.2,58.5l-2.2-1.2c-1-0.6-2.3-0.2-2.9,0.8L253.6,138c-0.6,1-0.2,2.3,0.8,2.9
				l11.1,6.1c0.5,0.3,1.1,0.3,1.6,0.2s1-0.5,1.3-1l19.6-35.7c0.3-0.5,0.3-1.1,0.2-1.6c-0.2-0.5-0.5-1-1-1.3l-0.6-0.3
				c16.5-13.8,42.1-36.1,46.7-44.5c3.2-5.9,4-12.7,2.1-19.2s-6.2-11.8-12.1-15.1c-5.9-3.2-12.7-4-19.2-2.1
				C297.7,28.3,292.4,32.6,289.1,38.5L289.1,38.5z M283.3,110.3l-17.6,32l-7.5-4.1l17.6-32L283.3,110.3z M331.4,44.8
				c1.6,5.4,0.9,11.1-1.8,16c-2.7,5-15.9,17.7-36,35c11.4-14,25.7-32.1,29.4-38.7c3.1-5.7,5-11.7,5.2-16.8c0-0.7,0-1.4,0-2
				C329.7,40.3,330.7,42.4,331.4,44.8L331.4,44.8z M319.2,31.8L293,79.4c-0.6,1-0.2,2.3,0.8,2.9s2.3,0.2,2.9-0.8l26.2-47.6
				c0.9,1.4,1.3,3.6,1.1,6.3c-0.2,4.5-1.9,9.9-4.7,15c-4.4,8-25.4,33.8-36.6,47.4c5.5-16.8,16-48.3,20.4-56.3
				c2.8-5.1,6.4-9.4,10.2-12C315.5,32.7,317.5,31.9,319.2,31.8L319.2,31.8z"/>
		</g>
		<g>
			<path class="st0" d="M134.9,98.8l-6.3,6.3c-0.9,0.9-0.9,2.3,0,3.2c0.4,0.4,1,0.7,1.6,0.7s1.1-0.2,1.6-0.7l6.3-6.3
				c0.9-0.9,0.9-2.3,0-3.2C137.2,97.9,135.8,97.9,134.9,98.8L134.9,98.8z"/>
			<path class="st0" d="M194,63.1c-0.4-0.4-1-0.7-1.6-0.7c-0.5,0-0.9,0.2-1.3,0.4l-6.9-6.9l2.2-2.2l4.5,4.5c0.4,0.4,1,0.7,1.6,0.7
				s1.2-0.2,1.6-0.7L236.2,16c0.9-0.9,0.9-2.3,0-3.2L224.1,0.7c-0.4-0.4-1-0.7-1.6-0.7s-1.2,0.2-1.6,0.7L178.6,43
				c-0.9,0.9-0.9,2.3,0,3.2l4.5,4.5l-2.2,2.2l-3.1-3.1c-0.4-0.4-1-0.7-1.6-0.7s-1.2,0.2-1.6,0.7l-3.1,3.1l-2.2-2.2l4.5-4.5
				c0.9-0.9,0.9-2.3,0-3.2L131.5,0.7c-0.4-0.4-1-0.7-1.6-0.7s-1.2,0.2-1.6,0.7l-12.2,12.2c-0.9,0.9-0.9,2.3,0,3.2l42.3,42.3
				c0.4,0.4,1,0.7,1.6,0.7s1.2-0.2,1.6-0.7l4.5-4.5l2.2,2.2l-6.9,6.9c-0.4-0.3-0.8-0.4-1.3-0.4c-0.6,0-1.2,0.2-1.6,0.7l-42.3,42.3
				c-0.9,0.9-0.9,2.3,0,3.2l12.2,12.2c0.4,0.4,1,0.7,1.6,0.7s1.2-0.2,1.6-0.7l22.6-22.6l-1.4,38.4H146c-1.2,0-2.2,1-2.2,2.2
				s1,2.2,2.2,2.2h60.5c1.2,0,2.2-1,2.2-2.2s-1-2.2-2.2-2.2h-6.8l-1.4-38.4l22.6,22.6c0.4,0.4,1,0.7,1.6,0.7s1.2-0.2,1.6-0.7
				l12.2-12.2c0.9-0.9,0.9-2.3,0-3.2L194,63.1z M223.8,13.1c-0.9-0.9-2.3-0.9-3.2,0l-34.3,34.3l-2.9-2.9l39.1-39.1l9,9l-39.1,39.1
				l-2.9-2.9l34.3-34.3C224.7,15.4,224.7,13.9,223.8,13.1L223.8,13.1z M128.6,16.2l34.3,34.3l-2.9,2.9l-39.1-39.1l9-9L169,44.5
				l-2.9,2.9l-34.3-34.3c-0.9-0.9-2.3-0.9-3.2,0C127.7,13.9,127.7,15.4,128.6,16.2L128.6,16.2z M222.5,116l-39.1-39.1l2.9-2.9
				l34.3,34.3c0.4,0.4,1,0.7,1.6,0.7s1.1-0.2,1.6-0.7c0.9-0.9,0.9-2.3,0-3.2l-34.3-34.3l2.9-2.9l39.1,39.1L222.5,116z M178.4,136.5
				v-11.4c0-1.2-1-2.2-2.2-2.2s-2.2,1-2.2,2.2v11.4h-16.7l1.6-43.1l15-15c0.9-0.9,0.9-2.3,0-3.2l-4.5-4.5l6.9-6.9l6.9,6.9l-4.5,4.5
				c-0.9,0.9-0.9,2.3,0,3.2l15,15l1.6,43.1H178.4z M120.9,107L160,67.9l2.9,2.9l-21.7,21.7c-0.9,0.9-0.9,2.3,0,3.2
				c0.4,0.4,1,0.7,1.6,0.7s1.1-0.2,1.6-0.7L166.1,74l2.9,2.9L129.9,116L120.9,107z M186.3,67.6l-6.9-6.9l1.6-1.6l6.9,6.9L186.3,67.6
				z M176.2,57.5l-1.6-1.6l1.6-1.6l1.6,1.6L176.2,57.5z M173,60.7l-6.9,6.9l-1.6-1.6l6.9-6.9L173,60.7z"/>
		</g>
		<g>
			<path class="st0" d="M32.6,93.3l-1-1.7c-0.6-1-1.9-1.4-2.9-0.8s-1.4,1.9-0.8,2.9l1,1.7c0.3,0.5,0.8,0.9,1.3,1s1.1,0.1,1.6-0.2
				C32.8,95.7,33.2,94.3,32.6,93.3L32.6,93.3z"/>
			<path class="st0" d="M100.5,139.7L41.8,38.2c-0.6-1-1.9-1.4-2.9-0.8l-37.8,22c-0.5,0.3-0.9,0.8-1,1.3C0,61.3,0,61.8,0.3,62.3
				L37,126.2c0.3,0.5,0.8,0.9,1.3,1s1.1,0.1,1.6-0.2l29-16.9l2.8,4.8c-0.8,0.7-1.4,1.7-1.6,2.7c-0.3,1.4,0,2.8,0.8,3.9
				c1.9,2.7,3.3,4.6,3.8,5.5c0.9,1.6,2.1,4.3,3.3,6.8c1.3,2.8,2.5,5.4,3.5,7.2c0.5,0.8,1.5,2.2,3,4.2c0.9,1.1,2,1.8,3.3,2.2
				c1.5,0.4,3.2,0.2,4.7-0.6l7.1-4.2C100.8,142.1,101.1,140.8,100.5,139.7L100.5,139.7z M39.6,122.2l-34.5-60l3.2-1.9l16,27.4
				c0.3,0.5,0.8,0.9,1.3,1s1.1,0.1,1.6-0.2c1-0.6,1.4-1.9,0.8-2.9L12,58.1l27.1-15.8l34.5,60L39.6,122.2z M72.6,107.9l3.2-1.9
				l2.8,4.7l-3.2,1.9L72.6,107.9z M90.4,143.1c-0.8,0.5-1.9,0.3-2.4-0.5c-1.9-2.4-2.5-3.4-2.7-3.7c-0.9-1.6-2.1-4.3-3.3-6.8
				c-1.3-2.8-2.5-5.4-3.5-7.2c-0.6-1.1-2-3-4-5.9c-0.1-0.2-0.1-0.4-0.1-0.5s0.1-0.3,0.3-0.4l6.2-3.6l14.9,25.6L90.4,143.1z"/>
			<path class="st0" d="M41.1,50.2c-0.7-1.3-1.9-2.2-3.4-2.6c-1.4-0.4-2.9-0.2-4.2,0.6c-1.3,0.7-2.2,1.9-2.6,3.4
				c-0.4,1.4-0.2,2.9,0.6,4.2c0.8,1.3,2,2.2,3.4,2.6c1.4,0.4,2.9,0.2,4.2-0.6C41.8,56.2,42.7,52.8,41.1,50.2L41.1,50.2z M37,54
				c-0.6,0.3-1.3,0.1-1.7-0.4c-0.2-0.3-0.2-0.6-0.1-0.9c0.1-0.3,0.3-0.6,0.6-0.8c0.6-0.3,1.3-0.1,1.7,0.4C37.7,52.9,37.5,53.7,37,54
				L37,54z"/>
		</g>
	</g>
	<g>
		<path class="st0" d="M177.6,181.3c-20.2,0-38.4-0.6-53.8-1.5c-48.3-2.8-79.7-8.4-80-8.4c-1.7-0.3-2.8-1.9-2.5-3.5
			c0.3-1.7,1.9-2.8,3.5-2.5c0.3,0.1,31.5,5.6,79.4,8.3c44.2,2.5,112.1,3.1,184.5-8.3c1.7-0.3,3.2,0.9,3.5,2.5
			c0.3,1.7-0.9,3.2-2.5,3.5C261.9,178.9,216,181.3,177.6,181.3z"/>
	</g>
</g>
</svg>
