<?xml version="1.0" encoding="utf-8"?>
<!-- Generator: Adobe Illustrator 24.1.2, SVG Export Plug-In . SVG Version: 6.00 Build 0)  -->
<svg version="1.1" id="Layer_1" xmlns="http://www.w3.org/2000/svg" xmlns:xlink="http://www.w3.org/1999/xlink" x="0px" y="0px"
	 viewBox="0 0 200 133.7" style="enable-background:new 0 0 200 133.7;" xml:space="preserve">
<style type="text/css">
	.st0{fill:#F9F9F9;}
</style>
<g>
	<g>
		<g>
			<path class="st0" d="M149.8,38.3c-0.1,0.5-0.2,1-0.2,1.5c-0.1,0.6,0.3,1.1,0.9,1.2c0.6,0.1,1.1-0.3,1.2-0.9
				c0.1-0.5,0.2-1,0.2-1.5c0-0.2,0-0.3,0-0.4c-0.1-0.4-0.4-0.7-0.8-0.7C150.4,37.4,149.9,37.8,149.8,38.3L149.8,38.3z"/>
			<path class="st0" d="M154.3,18.7c-1.1,2.1-2.4,7.3-3.9,16c-0.1,0.6,0.3,1.1,0.8,1.2c0.6,0.1,1.1-0.3,1.2-0.8
				c1.8-10.4,3-14.1,3.7-15.4c1.3-2.4,3.5-4.1,6.1-4.9c1.2-0.3,2.3-0.5,3.5-0.4c-0.3,0.2-0.5,0.3-0.8,0.5c-2.1,1.4-4,3.8-5.6,6.5
				C157,25.7,151.6,42,149,50l-1.1-0.6c-0.5-0.3-1.1-0.1-1.4,0.4L137,67.2c-0.3,0.5-0.1,1.1,0.4,1.4l5.4,3c0.2,0.1,0.5,0.2,0.8,0.1
				s0.5-0.3,0.6-0.5l9.5-17.4c0.1-0.2,0.2-0.5,0.1-0.8c-0.1-0.3-0.3-0.5-0.5-0.6l-0.3-0.1c8-6.7,20.5-17.6,22.7-21.7
				c1.6-2.9,1.9-6.2,1-9.3s-3-5.8-5.9-7.3c-2.9-1.6-6.2-1.9-9.3-1C158.4,13.8,155.8,15.9,154.3,18.7L154.3,18.7z M151.4,53.7
				l-8.6,15.6l-3.6-2l8.6-15.6L151.4,53.7z M174.8,21.8c0.8,2.6,0.5,5.4-0.9,7.8c-1.3,2.4-7.7,8.6-17.5,17
				C162,39.8,169,31,170.7,27.8c1.5-2.8,2.4-5.7,2.5-8.2c0-0.3,0-0.7,0-1C174,19.6,174.5,20.7,174.8,21.8L174.8,21.8z M168.9,15.5
				l-12.7,23.2c-0.3,0.5-0.1,1.1,0.4,1.4c0.5,0.3,1.1,0.1,1.4-0.4l12.7-23.2c0.4,0.7,0.6,1.8,0.6,3.1c-0.1,2.2-0.9,4.8-2.3,7.3
				c-2.1,3.9-12.4,16.5-17.8,23.1c2.7-8.2,7.8-23.5,9.9-27.4c1.4-2.5,3.1-4.6,4.9-5.9C167.1,15.9,168.1,15.5,168.9,15.5L168.9,15.5z
				"/>
		</g>
		<g>
			<path class="st0" d="M79.2,48.1l-3.1,3.1c-0.4,0.4-0.4,1.1,0,1.5c0.2,0.2,0.5,0.3,0.8,0.3s0.6-0.1,0.8-0.3l3.1-3.1
				c0.4-0.4,0.4-1.1,0-1.5C80.3,47.6,79.7,47.6,79.2,48.1L79.2,48.1z"/>
			<path class="st0" d="M107.9,30.7c-0.2-0.2-0.5-0.3-0.8-0.3c-0.2,0-0.5,0.1-0.6,0.2l-3.4-3.4l1.1-1.1l2.2,2.2
				c0.2,0.2,0.5,0.3,0.8,0.3s0.6-0.1,0.8-0.3l20.6-20.6c0.4-0.4,0.4-1.1,0-1.5l-5.9-5.9c-0.2-0.2-0.5-0.3-0.8-0.3s-0.6,0.1-0.8,0.3
				l-20.6,20.6c-0.4,0.4-0.4,1.1,0,1.5l2.2,2.2l-1.1,1.1l-1.5-1.5c-0.2-0.2-0.5-0.3-0.8-0.3s-0.6,0.1-0.8,0.3L97,25.7l-1.1-1.1
				l2.2-2.2c0.4-0.4,0.4-1.1,0-1.5L77.6,0.3C77.4,0.1,77.1,0,76.8,0c-0.3,0-0.6,0.1-0.8,0.3l-5.9,5.9c-0.4,0.4-0.4,1.1,0,1.5
				l20.6,20.6c0.2,0.2,0.5,0.3,0.8,0.3s0.6-0.1,0.8-0.3l2.2-2.2l1.1,1.1l-3.4,3.4c-0.2-0.1-0.4-0.2-0.6-0.2c-0.3,0-0.6,0.1-0.8,0.3
				L70.1,51.3c-0.4,0.4-0.4,1.1,0,1.5l5.9,5.9c0.2,0.2,0.5,0.3,0.8,0.3s0.6-0.1,0.8-0.3l11-11l-0.7,18.7h-3.3
				c-0.6,0-1.1,0.5-1.1,1.1s0.5,1.1,1.1,1.1H114c0.6,0,1.1-0.5,1.1-1.1s-0.5-1.1-1.1-1.1h-3.3L110,47.7l11,11
				c0.2,0.2,0.5,0.3,0.8,0.3s0.6-0.1,0.8-0.3l5.9-5.9c0.4-0.4,0.4-1.1,0-1.5L107.9,30.7z M122.5,6.4c-0.4-0.4-1.1-0.4-1.5,0
				l-16.7,16.7l-1.4-1.4l19-19l4.4,4.4l-19,19l-1.4-1.4L122.6,8C122.9,7.5,122.9,6.8,122.5,6.4L122.5,6.4z M76.1,7.9l16.7,16.7
				L91.4,26l-19-19l4.4-4.4l19,19L94.4,23L77.7,6.4c-0.4-0.4-1.1-0.4-1.5,0C75.7,6.8,75.7,7.5,76.1,7.9L76.1,7.9z M121.8,56.4
				l-19-19l1.4-1.4l16.7,16.7c0.2,0.2,0.5,0.3,0.8,0.3s0.6-0.1,0.8-0.3c0.4-0.4,0.4-1.1,0-1.5l-16.7-16.7l1.4-1.4l19,19L121.8,56.4z
				 M100.4,66.4v-5.5c0-0.6-0.5-1.1-1.1-1.1s-1.1,0.5-1.1,1.1v5.5h-8.1l0.8-21l7.3-7.3c0.4-0.4,0.4-1.1,0-1.5L96,34.4l3.4-3.4
				l3.4,3.4l-2.2,2.2c-0.4,0.4-0.4,1.1,0,1.5l7.3,7.3l0.8,21H100.4z M72.4,52l19-19l1.4,1.4L82.3,45c-0.4,0.4-0.4,1.1,0,1.5
				c0.2,0.2,0.5,0.3,0.8,0.3s0.6-0.1,0.8-0.3L94.4,36l1.4,1.4l-19,19L72.4,52z M104.2,32.9l-3.4-3.4l0.8-0.8l3.4,3.4L104.2,32.9z
				 M99.3,28l-0.8-0.8l0.8-0.8l0.8,0.8L99.3,28z M97.8,29.5l-3.4,3.4l-0.8-0.8l3.4-3.4L97.8,29.5z"/>
		</g>
		<g>
			<path class="st0" d="M29.4,45.4l-0.5-0.8c-0.3-0.5-0.9-0.7-1.4-0.4s-0.7,0.9-0.4,1.4l0.5,0.8c0.1,0.3,0.4,0.4,0.6,0.5
				c0.3,0.1,0.5,0,0.8-0.1C29.5,46.5,29.7,45.9,29.4,45.4L29.4,45.4z"/>
			<path class="st0" d="M62.5,68L33.9,18.6c-0.3-0.5-0.9-0.7-1.4-0.4L14.1,28.9c-0.2,0.1-0.4,0.4-0.5,0.6s0,0.6,0.1,0.8l17.8,31
				c0.1,0.2,0.4,0.4,0.6,0.5c0.3,0.1,0.5,0,0.8-0.1L47,53.5l1.4,2.3c-0.4,0.3-0.7,0.8-0.8,1.3c-0.1,0.7,0,1.4,0.4,1.9
				c0.9,1.3,1.6,2.3,1.8,2.7c0.5,0.8,1,2.1,1.6,3.3c0.6,1.4,1.2,2.6,1.7,3.5c0.2,0.4,0.7,1.1,1.5,2c0.4,0.5,1,0.9,1.6,1.1
				c0.8,0.2,1.6,0.1,2.3-0.3l3.5-2C62.6,69.1,62.8,68.5,62.5,68L62.5,68z M32.9,59.4L16.1,30.2l1.5-0.9l7.8,13.4
				c0.1,0.3,0.4,0.4,0.6,0.5c0.3,0.1,0.5,0,0.8-0.1c0.5-0.3,0.7-0.9,0.4-1.4l-7.8-13.4l13.2-7.7l16.8,29.2L32.9,59.4z M48.9,52.5
				l1.5-0.9l1.3,2.3l-1.5,0.9L48.9,52.5z M57.6,69.6c-0.4,0.2-0.9,0.1-1.2-0.2c-0.9-1.2-1.2-1.6-1.3-1.8c-0.5-0.8-1-2.1-1.6-3.3
				c-0.6-1.4-1.2-2.6-1.7-3.5c-0.3-0.5-1-1.5-2-2.9c-0.1-0.1-0.1-0.2-0.1-0.3s0-0.1,0.2-0.2l3-1.7l7.3,12.4L57.6,69.6z"/>
			<path class="st0" d="M33.6,24.4c-0.4-0.6-0.9-1.1-1.6-1.3c-0.7-0.2-1.4-0.1-2,0.3s-1.1,0.9-1.3,1.6c-0.2,0.7-0.1,1.4,0.3,2
				s1,1.1,1.6,1.2c0.7,0.2,1.4,0.1,2-0.3C33.9,27.3,34.3,25.7,33.6,24.4L33.6,24.4z M31.6,26.3c-0.3,0.2-0.7,0.1-0.8-0.2
				c-0.1-0.1-0.1-0.3-0.1-0.5s0.1-0.3,0.3-0.4c0.3-0.2,0.7-0.1,0.8,0.2S31.8,26.1,31.6,26.3L31.6,26.3z"/>
		</g>
	</g>
	<g>
		<path class="st0" d="M99.7,133.7c-9.8,0-18.7-0.3-26.2-0.7c-23.5-1.3-38.8-4.1-38.9-4.1c-0.8-0.1-1.3-0.9-1.2-1.7s0.9-1.3,1.7-1.2
			c0.2,0,15.3,2.7,38.6,4.1c21.5,1.2,54.5,1.5,89.8-4.1c0.8-0.1,1.6,0.4,1.7,1.2c0.1,0.8-0.4,1.6-1.2,1.7
			C140.7,132.5,118.4,133.7,99.7,133.7z"/>
	</g>
	<g>
		<path class="st0" d="M17.3,91.9c0,3.4-1.4,5.6-4.1,6.6l5.4,7.6h-5.9L8,99.3H4.8v6.8H0V84.8h8.1c3.3,0,5.7,0.6,7.1,1.7
			S17.3,89.4,17.3,91.9z M11.6,94.4c0.6-0.5,0.9-1.4,0.9-2.5c0-1.2-0.3-1.9-0.9-2.4c-0.6-0.4-1.7-0.6-3.2-0.6H4.8v6.3h3.5
			C9.9,95.2,11,95,11.6,94.4z"/>
		<path class="st0" d="M33.3,84.8c-0.6-0.7-0.9-1.4-0.9-2.3s0.3-1.7,1-2.3c0.6-0.6,1.4-1,2.3-1c0.9,0,1.7,0.3,2.3,1
			c0.6,0.6,1,1.4,1,2.3s-0.3,1.7-1,2.3l9.2,21.3h-5.1l-2-4.6h-9l-2,4.6H24L33.3,84.8z M35.6,91.2l-2.7,6.2h5.3L35.6,91.2z
			 M34.5,81.4c-0.3,0.3-0.5,0.7-0.5,1.1s0.2,0.8,0.5,1.1c0.3,0.3,0.7,0.5,1.1,0.5c0.4,0,0.8-0.2,1.1-0.5s0.5-0.7,0.5-1.1
			s-0.2-0.8-0.5-1.1S36,81,35.6,81C35.2,81,34.8,81.1,34.5,81.4z"/>
		<path class="st0" d="M66.6,84.8h4.8v21.4h-4.8v-8.4h-8.5v8.4h-4.8V84.8h4.8v8.9h8.5V84.8z"/>
		<path class="st0" d="M95.5,106.2l-2-4.6h-9l-2,4.6h-5.1l9.2-21.4h4.6l9.2,21.4H95.5z M89.1,91.2l-2.7,6.2h5.3L89.1,91.2z"/>
		<path class="st0" d="M121.7,84.8h4.8v21.4h-4.8l-10.2-13.4v13.4h-4.8V84.8h4.5l10.5,13.8V84.8z"/>
		<path class="st0" d="M151.6,87.6c2,1.9,3.1,4.5,3.1,7.8s-1,6-3,7.9s-5,2.9-9.1,2.9h-7.3V84.8h7.5
			C146.7,84.8,149.6,85.7,151.6,87.6z M148.1,100.3c1.2-1.1,1.8-2.7,1.8-4.8c0-2.1-0.6-3.7-1.8-4.8c-1.2-1.1-3-1.7-5.4-1.7H140v13h3
			C145.3,102,147,101.4,148.1,100.3z"/>
		<path class="st0" d="M177.8,84.8V89h-10.6v4.4h9.6v4.1h-9.6v4.4h11v4.2h-15.7V84.8H177.8z"/>
		<path class="st0" d="M186.1,106.2V84.8h4.8v17.1h9.1v4.2L186.1,106.2L186.1,106.2z"/>
	</g>
</g>
</svg>
