<?xml version="1.0" encoding="utf-8"?>
<!-- Generator: Adobe Illustrator 23.0.1, SVG Export Plug-In . SVG Version: 6.00 Build 0)  -->
<svg version="1.1" id="Layer_1" xmlns="http://www.w3.org/2000/svg" xmlns:xlink="http://www.w3.org/1999/xlink" x="0px" y="0px"
	 viewBox="0 0 53.6 47.7" style="enable-background:new 0 0 53.6 47.7;" xml:space="preserve">
<style type="text/css">
	.st0{fill:none;stroke:#16639F;stroke-width:1.7;stroke-linecap:round;stroke-linejoin:round;stroke-miterlimit:10;}
</style>
<g>
	<path class="st0" d="M18.4,13.9c0,0-3.2-0.8-3.2,1.6s2.6,3.6,3.3,3.3"/>
	<path class="st0" d="M23.5,26.6v2.2l-9.9,2.6c0,0-3.4,1.2-3.4,4.2c0,3,0,8.4,0,8.4"/>
	<line class="st0" x1="16.8" y1="38.4" x2="16.8" y2="44"/>
	<path class="st0" d="M32.2,26.6v2.2l9.9,2.6c0,0,3.4,1.2,3.4,4.2c0,3,0,8.4,0,8.4"/>
	<line class="st0" x1="38.9" y1="38.4" x2="38.9" y2="44"/>
	<path class="st0" d="M23.4,28.2c0,0,1.2,2,4.4,2"/>
	<path class="st0" d="M32.3,28.2c0,0-1.2,2-4.4,2"/>
	<path class="st0" d="M37.3,13.9c0,0,3.2-0.8,3.2,1.6s-2.6,3.6-3.3,3.3"/>
	<g>
		<path class="st0" d="M27.9,27.6h-0.2c0,0-6.2,0.2-8.8-6.5c-0.3-0.8-0.5-1.7-0.5-2.6c0-1.3,0-3.7,0.2-6.2c0,0-0.1-8.5,9.1-8.5"/>
		<path class="st0" d="M27.6,27.6h0.2c0,0,6.2,0.2,8.8-6.5c0.3-0.8,0.5-1.7,0.5-2.6c0-1.3,0-3.7-0.2-6.2c0,0,0.1-8.5-9.1-8.5"/>
	</g>
	<path class="st0" d="M21.8,29.8"/>
	<path class="st0" d="M27.8,30.2c0,0,0,1.8-1.2,1.8s-4.2-0.9-4.2-2.8"/>
	<path class="st0" d="M28,30.2c0,0,0,1.8,1.2,1.8s4.3-0.9,4.3-2.8"/>
	<path class="st0" d="M28.9,32.6"/>
	<path class="st0" d="M27.2,34"/>
	<line class="st0" x1="27.2" y1="31.8" x2="26.6" y2="44"/>
	<line class="st0" x1="28.5" y1="31.8" x2="29.1" y2="44"/>
	<line class="st0" x1="26.1" y1="31.9" x2="27.2" y2="33.2"/>
	<line class="st0" x1="29.6" y1="31.9" x2="28.5" y2="33.2"/>
</g>
</svg>
