<?xml version="1.0" encoding="utf-8"?>
<!-- Generator: Adobe Illustrator 23.0.1, SVG Export Plug-In . SVG Version: 6.00 Build 0)  -->
<svg version="1.1" id="Layer_1" xmlns="http://www.w3.org/2000/svg" xmlns:xlink="http://www.w3.org/1999/xlink" x="0px" y="0px"
	 viewBox="0 0 54.2 55.9" style="enable-background:new 0 0 54.2 55.9;" xml:space="preserve">
<style type="text/css">
	.st0{display:none;}
	.st1{display:inline;fill:none;stroke:#6D9B32;stroke-width:2;stroke-linecap:round;stroke-miterlimit:10;}
	.st2{fill:#16639F;}
</style>
<g class="st0">
	<path class="st1" d="M33.6,55.3c3.6,1,7.8-0.3,7.8-0.3c11-4.1,9.1-9.3,9.1-9.3s-1.1-5.4-12.6-3.1c0,0-4.3,1-6.8,3.8"/>
	<path class="st1" d="M32.8,55c-1.4-0.6-2.5-1.8-3-3.4c-0.5-1.6-0.1-3.2,0.7-4.5"/>
	<path class="st1" d="M30.6,47.1c0.2-0.2,0.4-0.5,0.5-0.7C30.9,46.6,30.7,46.9,30.6,47.1z"/>
	<path class="st1" d="M33.6,55.3c-0.3-0.1-0.6-0.2-0.8-0.3C33.1,55.1,33.4,55.2,33.6,55.3z"/>
	<ellipse class="st1" cx="34.3" cy="50.5" rx="0.4" ry="0.4"/>
	<path class="st1" d="M37,52.6L37,52.6L37,52.6z"/>
	<path class="st1" d="M39.2,49.1L39.2,49.1L39.2,49.1z"/>
	<ellipse class="st1" cx="44.4" cy="45.4" rx="0.1" ry="0.1"/>
</g>
<g>
	<circle class="st2" cx="13.4" cy="47.8" r="1"/>
</g>
<g>
	<circle class="st2" cx="24.7" cy="47.8" r="1"/>
</g>
<path class="st2" d="M44.5,2.4L44.5,2.4L44.5,2.4L44.5,2.4z"/>
<path class="st2" d="M50.7,11h-3.1V5.1c0-1.5-1.3-2.6-3.1-2.6v2h-0.1c0.7,0,1.2,0.4,1.2,0.6v12c0,0.2,0,0.4,0.1,0.6h3
	c-0.7,0-1.1-0.4-1.1-0.6V13h2.3v4.1c0,0.2-0.5,0.6-1.2,0.6v2c1.8,0,3.2-1.2,3.2-2.7v-4.9C51.9,11.5,51.4,11,50.7,11z"/>
<path class="st2" d="M42.2,17.7h1V5.1c0-0.2,0.5-0.6,1.2-0.6h-3.1c-0.1,0.2-0.1,0.4-0.1,0.6v45.8c0,0.2-0.5,0.6-1.2,0.6
	s-1.2-0.4-1.2-0.6V48c0-0.7-0.6-1.2-1.2-1.2h-13v2h12.2v2.1c0,0.2,0,0.4,0.1,0.6H5.5c-0.7,0-1.2-0.4-1.2-0.6v-2.1h9.1v-2H8.8v1h-2
	v-1H3.5c-0.7,0-1.2,0.6-1.2,1.2v2.9c0,1.5,1.4,2.7,3.2,2.7H40l0,0h0.1c1.8,0,3.2-1.2,3.2-2.7V19.8h-1L42.2,17.7L42.2,17.7z"/>
<path class="st2" d="M44.4,2.5H9.9c-1.8,0-3.2,1.2-3.2,2.7v41.6h2V5.1h0.1c0-0.2,0.5-0.6,1.2-0.6h31.3h0.1h3h0.1L44.4,2.5L44.4,2.5z
	"/>
<rect x="6.7" y="46.7" class="st2" width="2" height="1"/>
<path class="st2" d="M45.8,17.7h-2.6v2h5.5C47.1,19.7,46.2,18.9,45.8,17.7z"/>
<rect x="42.2" y="17.7" class="st2" width="1" height="2"/>
<path class="st2" d="M45.7,17.7c0.3,1.2,1.5,2,3,2v-2H45.7z"/>
<path class="st2" d="M11.5,11.1h6.1c0.6,0,1-0.5,1-1s-0.5-1-1-1h-6.1c-0.6,0-1,0.5-1,1S11,11.1,11.5,11.1z"/>
<path class="st2" d="M38,39.6h-6.5c-0.6,0-1,0.5-1,1c0,0.6,0.5,1,1,1H38c0.6,0,1-0.5,1-1C39,40,38.5,39.6,38,39.6z"/>
<g>
	<path class="st2" d="M37.8,33.8H11.6c-0.6,0-1-0.4-1-1V14c0-0.6,0.4-1,1-1h26.2c0.6,0,1,0.4,1,1v18.8
		C38.8,33.3,38.3,33.8,37.8,33.8z M12.6,31.8h24.2V15H12.6V31.8z"/>
</g>
<g>
	<rect x="30.5" y="14" class="st2" width="2" height="18.8"/>
</g>
<g>
	<rect x="11.6" y="19.3" class="st2" width="26.2" height="2"/>
</g>
<g>
	<rect x="11.6" y="25.7" class="st2" width="26.2" height="2"/>
</g>
<rect x="41.9" y="17.7" class="st2" width="1.4" height="3.9"/>
<g>
	<circle class="st2" cx="17.3" cy="47.8" r="1"/>
</g>
<g>
	<circle class="st2" cx="20.7" cy="47.8" r="1"/>
</g>
<rect x="17.3" y="46.8" class="st2" width="3.4" height="2"/>
<rect x="6.3" y="46.8" class="st2" width="2.6" height="1.2"/>
</svg>
